<?xml version="1.0" encoding="UTF-8"?>
<!-- Generator: Adobe Illustrator 16.0.0, SVG Export Plug-In . SVG Version: 6.00 Build 0)  -->
<!DOCTYPE svg PUBLIC "-//W3C//DTD SVG 1.1//EN" "http://www.w3.org/Graphics/SVG/1.1/DTD/svg11.dtd">
<svg version="1.1" id="Layer_1" xmlns="http://www.w3.org/2000/svg" xmlns:xlink="http://www.w3.org/1999/xlink" x="0px" y="0px" width="148.61px" height="80px" viewBox="208.135 -12.248 148.61 80" enable-background="new 208.135 -12.248 148.61 80" xml:space="preserve">
<g>
	<path fill="#006BB5" d="M211.531,67.752H353.33c1.875,0,3.415-1.521,3.415-3.401V-8.846c0-1.879-1.54-3.401-3.415-3.401H211.531   c-1.875,0-3.396,1.522-3.396,3.401v73.197C208.135,66.23,209.656,67.752,211.531,67.752"/>
	<path fill="#FFFFFF" d="M295.666,38.279c-1.085,0.442-2.179,0.666-3.272,0.666c-1.719,0-3.271-0.293-4.632-0.9   c-1.387-0.584-2.556-1.412-3.493-2.461c-0.938-1.055-1.661-2.299-2.188-3.711c-0.48-1.418-0.741-2.95-0.741-4.589   c0-1.683,0.261-3.243,0.741-4.679c0.526-1.436,1.25-2.696,2.188-3.779c0.938-1.059,2.106-1.911,3.493-2.513   c1.36-0.612,2.913-0.923,4.632-0.923c1.169,0,2.279,0.183,3.356,0.527c1.094,0.345,2.076,0.855,2.956,1.533   c0.875,0.673,1.575,1.495,2.144,2.485c0.579,0.996,0.919,2.133,1.055,3.41h-4.748c-0.289-1.268-0.856-2.213-1.699-2.838   c-0.83-0.625-1.852-0.943-3.063-0.943c-1.094,0-2.034,0.205-2.813,0.636c-0.781,0.432-1.406,1.01-1.897,1.743   c-0.494,0.716-0.84,1.544-1.071,2.47c-0.223,0.932-0.313,1.877-0.313,2.871c0,0.951,0.09,1.86,0.313,2.755   c0.231,0.896,0.577,1.705,1.071,2.422c0.491,0.703,1.116,1.287,1.897,1.719c0.778,0.428,1.719,0.639,2.813,0.639   c1.638,0,2.913-0.406,3.825-1.242c0.869-0.837,1.406-2.035,1.562-3.615h-4.999v-3.682h9.456v12.162h-3.135l-0.525-2.543   C297.706,37.029,296.725,37.814,295.666,38.279"/>
	<path fill="#FFFFFF" d="M315.968,15.936c1.431,0,2.794,0.234,4.046,0.695c1.25,0.459,2.327,1.147,3.236,2.08   c0.938,0.926,1.643,2.072,2.155,3.471c0.501,1.376,0.769,3.013,0.769,4.889c0,1.641-0.196,3.148-0.635,4.531   c-0.414,1.393-1.039,2.584-1.896,3.594c-0.861,1.016-1.92,1.801-3.205,2.381c-1.25,0.588-2.744,0.864-4.47,0.864h-9.726V15.936   H315.968z M315.601,34.289c0.721,0,1.409-0.114,2.104-0.344c0.66-0.234,1.25-0.625,1.795-1.162c0.521-0.529,0.938-1.225,1.25-2.089   c0.313-0.863,0.469-1.912,0.469-3.155c0-1.135-0.097-2.159-0.313-3.083c-0.232-0.902-0.602-1.684-1.094-2.349   c-0.513-0.646-1.17-1.142-2.018-1.485c-0.814-0.35-1.845-0.528-3.059-0.528h-3.527v14.195H315.601z"/>
	<polygon fill="#FFFFFF" points="345.438,15.936 345.438,20.094 334.576,20.094 334.576,25.302 343.989,25.302 343.989,29.139    334.576,29.139 334.576,38.441 329.61,38.441 329.61,15.936  "/>
	<path fill="#FFFFFF" d="M285.969,44.011v1.136h-3.263v1.308h2.978v1.044h-2.978v1.516h3.325v1.135h-4.656v-6.138H285.969z    M283.824,41.94l-0.895,1.519h0.845l1.397-1.519H283.824z"/>
	<path fill="#FFFFFF" d="M290.776,45.701v0.822h-0.882v2.188c0,0.212,0.023,0.35,0.086,0.424c0.07,0.064,0.227,0.097,0.426,0.097   c0.063,0,0.121-0.006,0.188-0.015c0.081,0,0.138,0,0.182-0.018v0.949c-0.101,0.006-0.208,0.023-0.338,0.031   c-0.132,0.01-0.235,0.016-0.381,0.016c-0.163,0-0.354-0.021-0.531-0.041c-0.177-0.037-0.321-0.078-0.434-0.156   c-0.136-0.078-0.229-0.184-0.302-0.313c-0.071-0.148-0.131-0.318-0.131-0.547v-2.615h-0.722v-0.822h0.722v-1.328h1.234v1.328   H290.776z"/>
	<path fill="#FFFFFF" d="M292.238,49.076c0.185,0.182,0.466,0.263,0.781,0.263c0.254,0,0.469-0.052,0.644-0.179   c0.189-0.127,0.294-0.256,0.334-0.391h1.063c-0.166,0.525-0.416,0.916-0.791,1.148c-0.341,0.227-0.781,0.339-1.271,0.339   c-0.372,0-0.685-0.062-0.95-0.173c-0.278-0.109-0.516-0.271-0.72-0.477c-0.184-0.195-0.34-0.449-0.439-0.74   c-0.123-0.275-0.161-0.59-0.161-0.938c0-0.336,0.04-0.644,0.167-0.938c0.094-0.275,0.25-0.527,0.461-0.744   c0.181-0.193,0.423-0.365,0.727-0.486c0.257-0.121,0.563-0.176,0.916-0.176c0.37,0,0.71,0.074,0.972,0.214   c0.3,0.14,0.531,0.337,0.688,0.591c0.192,0.248,0.313,0.523,0.394,0.836c0.075,0.313,0.122,0.65,0.086,0.992h-3.207   C291.956,48.615,292.071,48.904,292.238,49.076 M293.633,46.744c-0.146-0.164-0.383-0.245-0.69-0.245   c-0.172,0-0.337,0.029-0.474,0.103c-0.135,0.067-0.231,0.15-0.313,0.236c-0.075,0.108-0.135,0.203-0.156,0.311   c-0.032,0.115-0.063,0.209-0.071,0.3h2.004C293.875,47.141,293.773,46.905,293.633,46.744"/>
	<path fill="#FFFFFF" d="M296.613,45.701V46.3h0.025c0.162-0.227,0.362-0.401,0.6-0.525c0.221-0.13,0.469-0.188,0.774-0.188   c0.263,0,0.532,0.045,0.763,0.156c0.23,0.115,0.413,0.309,0.518,0.584c0.133-0.193,0.31-0.375,0.532-0.52   c0.226-0.145,0.507-0.221,0.816-0.221c0.235,0,0.443,0.026,0.659,0.078c0.189,0.063,0.371,0.156,0.507,0.271   c0.135,0.129,0.268,0.299,0.349,0.506c0.082,0.197,0.1,0.437,0.1,0.731v2.976h-1.203V47.62c0-0.144-0.009-0.278-0.027-0.415   c-0.018-0.135-0.037-0.254-0.105-0.342c-0.035-0.105-0.109-0.184-0.223-0.228c-0.103-0.069-0.236-0.093-0.415-0.093   c-0.156,0-0.313,0.031-0.391,0.096c-0.121,0.076-0.207,0.156-0.257,0.265c-0.053,0.101-0.114,0.223-0.134,0.36   c0,0.129-0.013,0.275-0.013,0.401v2.483h-1.237v-2.494c0-0.134,0-0.271,0-0.391c0-0.131-0.027-0.25-0.075-0.353   c-0.043-0.116-0.11-0.196-0.224-0.272c-0.089-0.064-0.245-0.096-0.428-0.096c-0.055,0-0.13,0.018-0.223,0.039   c-0.105,0.02-0.204,0.072-0.301,0.141c-0.075,0.072-0.156,0.187-0.223,0.307c-0.055,0.146-0.09,0.313-0.09,0.541v2.578h-1.217   v-4.447H296.613z"/>
	<path fill="#FFFFFF" d="M303.956,45.701v0.566h0.003c0.153-0.244,0.354-0.41,0.579-0.525c0.227-0.111,0.489-0.156,0.743-0.156   c0.37,0,0.663,0.063,0.927,0.193c0.248,0.127,0.456,0.313,0.629,0.521c0.163,0.224,0.274,0.474,0.356,0.771   c0.081,0.275,0.119,0.584,0.119,0.896c0,0.307-0.038,0.588-0.119,0.859c-0.082,0.275-0.193,0.518-0.351,0.74   c-0.166,0.199-0.387,0.375-0.624,0.506c-0.231,0.123-0.541,0.185-0.856,0.185c-0.272,0-0.536-0.062-0.768-0.174   c-0.23-0.109-0.407-0.278-0.563-0.486h-0.003v2.103h-1.247v-5.998H303.956z M305.531,49.217c0.144-0.078,0.249-0.178,0.335-0.313   c0.085-0.115,0.133-0.271,0.188-0.442c0.009-0.181,0.036-0.345,0.036-0.532c0-0.168-0.027-0.354-0.043-0.513   c-0.06-0.181-0.111-0.333-0.201-0.466c-0.091-0.133-0.174-0.236-0.327-0.323c-0.137-0.085-0.307-0.129-0.478-0.129   c-0.229,0-0.385,0.044-0.523,0.129c-0.121,0.087-0.249,0.188-0.33,0.323c-0.075,0.121-0.137,0.275-0.156,0.452   c-0.044,0.173-0.072,0.349-0.072,0.526c0,0.188,0.03,0.352,0.072,0.532c0.03,0.171,0.081,0.327,0.166,0.442   c0.085,0.135,0.215,0.234,0.341,0.313c0.126,0.081,0.299,0.121,0.512,0.121C305.236,49.338,305.409,49.298,305.531,49.217"/>
	<path fill="#FFFFFF" d="M307.625,46.953c0.129-0.276,0.282-0.529,0.469-0.736c0.221-0.203,0.466-0.359,0.728-0.475   c0.291-0.109,0.604-0.156,0.95-0.156c0.354,0,0.666,0.047,0.956,0.156c0.267,0.115,0.515,0.271,0.728,0.475   c0.192,0.207,0.347,0.46,0.469,0.736c0.086,0.299,0.156,0.623,0.156,0.977c0,0.35-0.07,0.668-0.156,0.961   c-0.122,0.289-0.276,0.523-0.469,0.73c-0.213,0.209-0.461,0.364-0.728,0.469c-0.29,0.105-0.603,0.167-0.956,0.167   c-0.347,0-0.659-0.062-0.95-0.167c-0.262-0.104-0.507-0.26-0.728-0.469c-0.187-0.207-0.34-0.441-0.469-0.73   c-0.078-0.293-0.156-0.611-0.156-0.961C307.469,47.576,307.547,47.252,307.625,46.953 M308.744,48.44   c0.056,0.179,0.103,0.327,0.188,0.464c0.087,0.129,0.181,0.234,0.337,0.313c0.132,0.081,0.313,0.121,0.503,0.121   c0.197,0,0.372-0.04,0.51-0.121c0.156-0.078,0.256-0.184,0.343-0.313c0.085-0.137,0.133-0.285,0.188-0.464   c0.019-0.161,0.035-0.335,0.035-0.511c0-0.182-0.017-0.354-0.035-0.526c-0.056-0.177-0.104-0.331-0.188-0.452   c-0.087-0.135-0.187-0.238-0.343-0.323c-0.138-0.087-0.313-0.129-0.51-0.129c-0.19,0-0.371,0.042-0.503,0.129   c-0.156,0.085-0.25,0.188-0.337,0.323c-0.085,0.121-0.132,0.275-0.188,0.452c-0.025,0.173-0.036,0.345-0.036,0.526   C308.708,48.105,308.719,48.279,308.744,48.44"/>
	<path fill="#FFFFFF" d="M317.549,49.57c-0.156,0.244-0.316,0.427-0.549,0.526s-0.508,0.16-0.788,0.16   c-0.345,0-0.625-0.062-0.887-0.19c-0.263-0.137-0.455-0.303-0.622-0.535c-0.167-0.213-0.279-0.471-0.359-0.748   c-0.084-0.293-0.149-0.583-0.149-0.895c0-0.309,0.065-0.584,0.149-0.863c0.08-0.281,0.192-0.531,0.359-0.736   c0.167-0.216,0.354-0.391,0.608-0.51c0.254-0.133,0.524-0.193,0.859-0.193c0.281,0,0.517,0.047,0.753,0.156   c0.232,0.115,0.428,0.277,0.554,0.506h0.027v-2.237h1.214v6.138h-1.164V49.57H317.549z M317.491,47.383   c-0.022-0.166-0.099-0.313-0.179-0.448c-0.076-0.136-0.174-0.231-0.313-0.313c-0.143-0.083-0.313-0.124-0.494-0.124   c-0.207,0-0.363,0.041-0.52,0.124c-0.137,0.081-0.236,0.179-0.313,0.32c-0.08,0.128-0.156,0.284-0.188,0.44   c-0.048,0.176-0.048,0.35-0.048,0.541c0,0.162,0,0.338,0.055,0.512c0.025,0.166,0.102,0.318,0.182,0.463   c0.083,0.125,0.215,0.24,0.337,0.318c0.132,0.08,0.288,0.121,0.495,0.121c0.182,0,0.354-0.039,0.494-0.121   c0.15-0.078,0.236-0.184,0.313-0.313c0.08-0.137,0.156-0.289,0.179-0.469c0.055-0.158,0.058-0.35,0.058-0.526   S317.546,47.546,317.491,47.383"/>
	<path fill="#FFFFFF" d="M320.518,49.076c0.185,0.182,0.466,0.263,0.781,0.263c0.254,0,0.469-0.052,0.643-0.179   c0.19-0.127,0.295-0.256,0.335-0.391h1.063c-0.165,0.525-0.416,0.916-0.79,1.148c-0.341,0.227-0.781,0.339-1.272,0.339   c-0.37,0-0.683-0.062-0.949-0.173c-0.278-0.109-0.515-0.271-0.719-0.477c-0.185-0.195-0.341-0.449-0.441-0.74   c-0.123-0.275-0.16-0.59-0.16-0.938c0-0.336,0.04-0.644,0.167-0.938c0.094-0.275,0.25-0.527,0.461-0.744   c0.182-0.193,0.423-0.365,0.727-0.486c0.257-0.121,0.563-0.176,0.915-0.176c0.371,0,0.711,0.074,0.973,0.214   c0.3,0.14,0.532,0.337,0.688,0.591c0.191,0.248,0.313,0.523,0.393,0.836c0.076,0.313,0.122,0.65,0.086,0.992h-3.207   C320.237,48.615,320.35,48.904,320.518,49.076 M321.913,46.744c-0.146-0.164-0.382-0.245-0.69-0.245   c-0.172,0-0.337,0.029-0.473,0.103c-0.137,0.067-0.232,0.15-0.313,0.236c-0.076,0.108-0.136,0.203-0.156,0.311   c-0.034,0.115-0.063,0.209-0.072,0.3h2.004C322.156,47.141,322.053,46.905,321.913,46.744"/>
	<path fill="#FFFFFF" d="M325.623,47.07c0.027-0.287,0.095-0.525,0.207-0.711c0.15-0.189,0.313-0.346,0.485-0.461   c0.216-0.119,0.428-0.197,0.677-0.238c0.244-0.055,0.477-0.074,0.713-0.074c0.232,0,0.469,0.006,0.701,0.037   c0.229,0.041,0.423,0.098,0.625,0.197c0.169,0.078,0.323,0.211,0.469,0.377c0.099,0.17,0.156,0.373,0.156,0.641v2.316   c0,0.203,0.01,0.395,0.047,0.572c0.033,0.193,0.054,0.322,0.109,0.422h-1.24c-0.01-0.072-0.021-0.15-0.043-0.219   s-0.039-0.139-0.043-0.21c-0.178,0.2-0.402,0.335-0.684,0.415c-0.254,0.081-0.524,0.122-0.803,0.122   c-0.22,0-0.395-0.024-0.595-0.077c-0.187-0.059-0.343-0.139-0.488-0.244c-0.127-0.104-0.243-0.25-0.323-0.406   c-0.076-0.168-0.097-0.367-0.097-0.594c0-0.262,0.024-0.459,0.119-0.62c0.095-0.169,0.214-0.306,0.362-0.392   c0.131-0.109,0.294-0.18,0.477-0.229c0.159-0.041,0.357-0.078,0.545-0.119c0.165-0.024,0.36-0.037,0.549-0.064   c0.156-0.014,0.313-0.045,0.469-0.077c0.134-0.031,0.232-0.089,0.313-0.146c0.076-0.062,0.124-0.164,0.115-0.296   c0-0.119-0.034-0.234-0.056-0.313c-0.06-0.078-0.114-0.129-0.182-0.174s-0.153-0.068-0.258-0.091   c-0.089-0.011-0.174-0.011-0.301-0.011c-0.244,0-0.413,0.041-0.569,0.152c-0.136,0.095-0.218,0.279-0.236,0.514H325.623z    M328.446,47.967c-0.039,0.043-0.115,0.078-0.195,0.117c-0.076,0.018-0.156,0.039-0.232,0.057   c-0.095,0.023-0.196,0.026-0.305,0.045c-0.088,0.016-0.172,0.018-0.281,0.046c-0.099,0.011-0.195,0.042-0.275,0.063   c-0.076,0.025-0.156,0.063-0.232,0.115c-0.074,0.054-0.111,0.105-0.156,0.182c-0.036,0.078-0.068,0.174-0.068,0.285   c0,0.105,0.032,0.205,0.068,0.277c0.045,0.071,0.086,0.141,0.156,0.182c0.076,0.037,0.156,0.074,0.237,0.08   c0.099,0.027,0.203,0.035,0.308,0.035c0.236,0,0.407-0.037,0.549-0.115c0.139-0.083,0.232-0.189,0.302-0.297   c0.054-0.109,0.087-0.22,0.092-0.332c0.022-0.115,0.034-0.215,0.034-0.276V47.967z"/>
	<path fill="#FFFFFF" d="M332.313,46.499c-0.209,0-0.376,0.048-0.493,0.14c-0.132,0.078-0.241,0.197-0.328,0.342   c-0.086,0.132-0.134,0.285-0.188,0.461c-0.009,0.176-0.036,0.332-0.036,0.5c0,0.164,0.027,0.33,0.036,0.494   c0.054,0.158,0.097,0.313,0.174,0.449c0.077,0.139,0.197,0.25,0.314,0.332c0.132,0.078,0.288,0.121,0.488,0.121   c0.281,0,0.501-0.08,0.657-0.236c0.16-0.158,0.27-0.391,0.313-0.666h1.174c-0.08,0.588-0.296,1.016-0.636,1.328   c-0.382,0.311-0.843,0.469-1.396,0.479l-0.236,0.343l0,0c0.08-0.025,0.165-0.041,0.313-0.041c0.08,0,0.176,0.01,0.28,0.041   c0.104,0.021,0.188,0.053,0.265,0.107c0.072,0.049,0.122,0.109,0.16,0.186c0.062,0.076,0.076,0.176,0.076,0.27   c0,0.171-0.024,0.301-0.076,0.412c-0.08,0.119-0.156,0.2-0.236,0.275c-0.085,0.065-0.209,0.115-0.313,0.133   c-0.141,0.023-0.244,0.038-0.389,0.038c-0.137,0-0.236-0.006-0.34-0.015c-0.11,0-0.201-0.016-0.279-0.041   c-0.076-0.007-0.148-0.037-0.217-0.052c-0.067-0.026-0.142-0.054-0.224-0.078l0.195-0.417c0.083,0.041,0.176,0.078,0.315,0.115   c0.104,0.028,0.236,0.041,0.393,0.041c0.096,0,0.183-0.024,0.237-0.073c0.075-0.042,0.104-0.12,0.104-0.217   c0-0.104-0.028-0.179-0.108-0.216c-0.062-0.041-0.146-0.06-0.232-0.06c-0.13,0-0.236,0.019-0.338,0.06l-0.194-0.201L332,50.232   c-0.313-0.037-0.564-0.111-0.803-0.232c-0.239-0.117-0.447-0.273-0.608-0.471c-0.181-0.193-0.308-0.428-0.397-0.689   c-0.1-0.254-0.143-0.545-0.143-0.852c0-0.342,0.049-0.664,0.156-0.959c0.076-0.297,0.232-0.547,0.434-0.768   c0.191-0.207,0.424-0.377,0.719-0.5c0.263-0.122,0.589-0.176,0.955-0.176c0.257,0,0.522,0.035,0.771,0.099   c0.246,0.063,0.456,0.173,0.635,0.313c0.201,0.135,0.357,0.317,0.469,0.525c0.133,0.203,0.195,0.459,0.224,0.74h-1.209   C333.122,46.758,332.827,46.499,332.313,46.499"/>
	<path fill="#FFFFFF" d="M334.642,47.07c0.015-0.287,0.095-0.525,0.203-0.711c0.124-0.189,0.28-0.346,0.489-0.461   c0.184-0.119,0.416-0.197,0.652-0.238c0.232-0.055,0.478-0.074,0.731-0.074c0.216,0,0.438,0.006,0.675,0.037   c0.232,0.041,0.455,0.098,0.625,0.197c0.201,0.078,0.354,0.211,0.469,0.377c0.13,0.17,0.181,0.373,0.181,0.641v2.316   c0,0.203,0.018,0.395,0.052,0.572c0,0.193,0.056,0.322,0.101,0.422h-1.229c-0.036-0.072-0.041-0.15-0.043-0.219   c-0.021-0.068-0.038-0.139-0.047-0.21c-0.188,0.2-0.42,0.335-0.679,0.415c-0.281,0.081-0.524,0.122-0.823,0.122   c-0.199,0-0.404-0.024-0.574-0.077c-0.199-0.059-0.362-0.139-0.488-0.244c-0.128-0.104-0.251-0.25-0.328-0.406   c-0.077-0.168-0.107-0.367-0.107-0.594c0-0.262,0.04-0.459,0.135-0.62c0.095-0.169,0.185-0.306,0.334-0.392   c0.156-0.109,0.313-0.18,0.469-0.229c0.195-0.041,0.393-0.078,0.549-0.119c0.196-0.024,0.389-0.037,0.545-0.064   c0.182-0.014,0.34-0.045,0.469-0.077c0.156-0.031,0.251-0.089,0.333-0.146c0.081-0.062,0.136-0.164,0.131-0.296   c0-0.119-0.034-0.234-0.071-0.313c-0.053-0.078-0.099-0.129-0.167-0.174c-0.069-0.045-0.153-0.068-0.258-0.091   c-0.104-0.011-0.2-0.011-0.3-0.011c-0.245,0-0.449,0.041-0.579,0.152c-0.126,0.095-0.208,0.279-0.245,0.514H334.642z    M337.283,44.998c-0.127,0-0.266-0.012-0.359-0.059c-0.123-0.044-0.236-0.098-0.313-0.139c-0.113-0.064-0.225-0.115-0.313-0.152   c-0.084-0.041-0.188-0.068-0.287-0.068c-0.105,0-0.182,0.039-0.262,0.116c-0.053,0.077-0.078,0.187-0.123,0.302h-0.537   c0.026-0.119,0.035-0.26,0.109-0.391c0.032-0.125,0.094-0.246,0.184-0.35c0.091-0.117,0.205-0.197,0.301-0.268   c0.141-0.059,0.261-0.087,0.405-0.087c0.13,0,0.222,0.006,0.348,0.042c0.095,0.037,0.204,0.082,0.322,0.137   c0.085,0.055,0.183,0.098,0.286,0.135c0.104,0.037,0.191,0.043,0.268,0.043c0.11,0,0.191-0.021,0.236-0.08   c0.076-0.055,0.113-0.156,0.156-0.276h0.545c-0.036,0.144-0.076,0.276-0.114,0.417c-0.042,0.131-0.118,0.25-0.188,0.352   c-0.073,0.095-0.166,0.179-0.26,0.248C337.556,44.973,337.437,44.998,337.283,44.998 M337.464,47.967   c-0.071,0.043-0.139,0.078-0.216,0.117c-0.077,0.018-0.162,0.039-0.248,0.057c-0.076,0.023-0.161,0.026-0.269,0.045   c-0.109,0.016-0.2,0.018-0.281,0.046c-0.099,0.011-0.196,0.042-0.292,0.063c-0.096,0.025-0.172,0.063-0.23,0.115   c-0.06,0.054-0.098,0.105-0.161,0.182c-0.017,0.078-0.049,0.174-0.049,0.285c0,0.105,0.032,0.205,0.049,0.277   c0.063,0.071,0.105,0.141,0.169,0.182c0.063,0.037,0.144,0.074,0.243,0.08c0.1,0.027,0.196,0.035,0.276,0.035   c0.236,0,0.438-0.037,0.555-0.115c0.146-0.083,0.227-0.189,0.303-0.297c0.078-0.109,0.095-0.22,0.117-0.332   c0.022-0.115,0.034-0.215,0.034-0.276V47.967z"/>
	<path fill="#FFFFFF" d="M339.204,46.953c0.128-0.276,0.281-0.529,0.462-0.736c0.227-0.203,0.459-0.359,0.732-0.475   c0.275-0.109,0.588-0.156,0.949-0.156c0.34,0,0.652,0.047,0.958,0.156c0.266,0.115,0.513,0.271,0.712,0.475   c0.208,0.207,0.361,0.46,0.469,0.736c0.101,0.299,0.156,0.623,0.156,0.977c0,0.35-0.056,0.668-0.156,0.961   c-0.107,0.289-0.261,0.523-0.469,0.73c-0.199,0.209-0.446,0.364-0.712,0.469c-0.306,0.105-0.618,0.167-0.958,0.167   c-0.361,0-0.674-0.062-0.949-0.167c-0.273-0.104-0.506-0.26-0.732-0.469c-0.181-0.207-0.334-0.441-0.462-0.73   c-0.093-0.293-0.167-0.611-0.167-0.961C339.037,47.576,339.112,47.252,339.204,46.953 M340.323,48.44   c0.039,0.179,0.1,0.327,0.188,0.464c0.084,0.129,0.169,0.234,0.32,0.313c0.146,0.081,0.313,0.121,0.518,0.121   c0.19,0,0.374-0.04,0.505-0.121c0.147-0.078,0.263-0.184,0.349-0.313c0.086-0.137,0.133-0.285,0.188-0.464   c0.009-0.161,0.036-0.335,0.036-0.511c0-0.182-0.027-0.354-0.036-0.526c-0.055-0.177-0.102-0.331-0.188-0.452   c-0.086-0.135-0.201-0.238-0.349-0.323c-0.131-0.087-0.314-0.129-0.505-0.129c-0.205,0-0.371,0.042-0.518,0.129   c-0.151,0.085-0.236,0.188-0.32,0.323c-0.088,0.121-0.148,0.275-0.188,0.452c-0.041,0.173-0.041,0.345-0.041,0.526   C340.281,48.105,340.281,48.279,340.323,48.44"/>
	<rect x="344.053" y="48.826" fill="#FFFFFF" width="1.361" height="1.322"/>
	<path fill="#FFFFFF" d="M256.58,56.413c-0.803,0-3.562-0.146-5.674-2.077c-1.563-1.455-2.131-3.575-2.206-6.291   c-0.066-2.54,0.785-4.757,2.519-6.563c3.206-3.268,8.362-4.141,8.96-4.141h0.033c0.12,0,0.226,0,0.307,0l0.228,0.002v0.742   l-0.228-0.004c-0.081-0.002-0.193-0.004-0.307-0.006l-0.032,0.002c-0.547,0-5.42,0.826-8.411,3.914   c-1.64,1.664-2.425,3.691-2.344,6.027c0.075,2.519,0.544,4.455,1.977,5.77c2.239,2.039,5.367,1.898,5.386,1.895h88.73v0.723   h-88.697C256.8,56.407,256.708,56.413,256.58,56.413"/>
	<path fill="#FFFFFF" d="M238.569,56.413c0.803,0,3.275-0.146,5.388-2.077c1.585-1.455,2.729-3.575,2.803-6.291   c0.067-2.54-0.785-4.757-2.564-6.563c-3.163-3.268-8.355-4.141-8.914-4.141h-0.074c-0.081,0-0.196,0-0.31,0l-0.184,0.002v0.742   l0.198-0.004c0.11-0.002,0.214-0.004,0.295-0.006l0.074,0.002c0.547,0,5.395,0.826,8.404,3.914   c1.597,1.664,2.388,3.691,2.329,6.027c-0.067,2.519-1.12,4.455-2.53,5.77c-2.241,2.039-5.077,1.898-5.122,1.895h-18.878v0.723   h18.848C238.349,56.407,238.441,56.413,238.569,56.413"/>
	<path fill="#FFF100" d="M234.874,38.205c0-0.129,0.02-0.274,0.02-0.395c-1.136-0.293-2.175-0.859-3.019-1.613   c-0.263,0.207-0.5,0.446-0.673,0.732c0.047,0.239,0.098,0.49,0.098,0.742c0,0.612-0.196,1.195-0.503,1.673   c0.266,1.062,1.125,1.901,2.168,2.171c0.267-0.695,0.91-1.203,1.693-1.203c0.467,0,0.86,0.162,1.173,0.43   c0.075-0.078,0.158-0.18,0.233-0.275C235.363,39.982,234.874,39.151,234.874,38.205"/>
	<path fill="#FFF100" d="M227.141,39.069c0,0.507-0.202,0.97-0.503,1.324c0.102,0.06,0.206,0.11,0.287,0.151   c0.404-0.506,1.028-0.838,1.729-0.838c0.534,0,1.003,0.176,1.384,0.469c0.298-0.223,0.557-0.508,0.76-0.831   c-0.054-0.243-0.107-0.492-0.107-0.753c0-0.625,0.199-1.184,0.513-1.662c-0.059-0.258-0.164-0.517-0.296-0.748   c-0.542,0.223-1.094,0.342-1.719,0.342c-0.856,0-1.665-0.234-2.344-0.666c-0.379,0.156-0.771,0.238-1.169,0.238   c-0.081,0-0.147-0.004-0.206-0.004c-0.177,0.283-0.284,0.602-0.351,0.938C226.219,37.035,227.141,37.953,227.141,39.069"/>
	<path fill="#F9A51A" d="M230.797,39.344c0.307-0.477,0.503-1.061,0.503-1.672c0-0.252-0.052-0.502-0.098-0.742   c-0.313,0.479-0.513,1.037-0.513,1.662C230.69,38.852,230.743,39.102,230.797,39.344"/>
	<path fill="#FFF100" d="M227.558,34.607c0.033,0,0.067,0,0.067-0.006C227.625,34.607,227.591,34.607,227.558,34.607"/>
	<path fill="#FFF100" d="M224.679,32.027c0-0.582,0.125-1.129,0.297-1.634c-0.319,0.086-0.634,0.229-0.944,0.427   c0.051,0.123,0.081,0.27,0.081,0.401c0,0.808-0.558,1.474-1.331,1.667c0,0.104,0,0.207,0,0.314c0,1.535,1.175,2.783,2.688,2.889   c0.182-0.293,0.392-0.549,0.659-0.781C225.234,34.492,224.679,33.32,224.679,32.027"/>
	<path fill="#FFF100" d="M227.832,34.57c0.03,0,0.031,0,0.071,0C227.864,34.57,227.863,34.57,227.832,34.57"/>
	<path fill="#FFF100" d="M227.306,34.678c0.007-0.004,0.007-0.01,0.007-0.014C227.313,34.668,227.313,34.674,227.306,34.678"/>
	<path fill="#FFF100" d="M226.3,35.154c0.02,0,0.043-0.012,0.064-0.026C226.343,35.143,226.32,35.154,226.3,35.154"/>
	<path fill="#FFF100" d="M226.531,35.002c0.004-0.004,0.018-0.004,0.031-0.006C226.549,34.998,226.535,34.998,226.531,35.002"/>
	<path fill="#FFF100" d="M227.01,34.764c0.031,0,0.062-0.007,0.071-0.02C227.072,34.757,227.041,34.764,227.01,34.764"/>
	<path fill="#FFF100" d="M226.781,34.873c0.018-0.01,0.036-0.018,0.054-0.025C226.818,34.855,226.799,34.863,226.781,34.873"/>
	<path fill="#F9A51A" d="M226.128,35.311c-0.268,0.232-0.478,0.488-0.659,0.781c0.059,0,0.125,0.004,0.206,0.004   c0.397,0,0.79-0.082,1.169-0.238C226.577,35.701,226.337,35.514,226.128,35.311"/>
	<path fill="#FFF100" d="M224.031,30.82c-0.07-0.306-0.216-0.569-0.406-0.781c-0.294,0.33-0.701,0.547-1.172,0.547   c-0.517,0-0.944-0.237-1.234-0.615c-0.321,0.313-0.544,0.764-0.544,1.25c0,0.326,0.075,0.615,0.231,0.885   c0.078-0.01,0.114-0.015,0.156-0.015c0.603,0,1.094,0.345,1.331,0.839c0.148,0,0.273-0.01,0.388-0.041   C222.891,32.029,223.365,31.286,224.031,30.82"/>
	<path fill="#FFF100" d="M225.438,25.882c0-0.173,0-0.337,0.016-0.493c-0.172-0.038-0.328-0.064-0.505-0.064   c-0.292,0-0.56,0.063-0.82,0.142c0,0.02,0.003,0.036,0.003,0.041c0,0.789-0.619,1.443-1.401,1.484   c-0.031,0.158-0.078,0.346-0.093,0.52c0.77,0.105,1.344,0.744,1.344,1.527c0,0.219-0.024,0.422-0.109,0.609   c0.316,0.178,0.686,0.271,1.077,0.271c0.102,0,0.177,0,0.258-0.01c0.313-0.561,0.7-1.043,1.198-1.434   C225.808,27.779,225.438,26.873,225.438,25.882"/>
	<path fill="#FFF100" d="M226.832,28.201c-0.022,0-0.046,0.003-0.063,0.018C226.786,28.204,226.81,28.201,226.832,28.201"/>
	<path fill="#FFF100" d="M229.748,21.942c-0.309,1.3-1.479,2.275-2.875,2.275c-0.342,0-0.669-0.068-0.978-0.174   c-0.221,0.409-0.377,0.869-0.442,1.346c1.02,0.234,1.784,1.143,1.784,2.23c0,0.123,0,0.24-0.02,0.355   c0.583-0.283,1.27-0.46,1.97-0.46c0.388,0,0.729,0.056,1.093,0.14c0.626-1.271,1.645-2.322,2.877-3.011   C232.663,23.166,231.357,22.082,229.748,21.942"/>
	<path fill="#F9A51A" d="M229.188,27.516c-0.7,0-1.387,0.176-1.97,0.458c-0.062,0.347-0.19,0.659-0.374,0.931   c0.706,0.588,1.563,0.938,2.553,0.938c0.052,0,0.104-0.001,0.185-0.005c0.099-0.776,0.343-1.517,0.699-2.183   C229.916,27.571,229.574,27.516,229.188,27.516"/>
	<path fill="#FFF100" d="M236.144,41.056c-0.082-0.118-0.198-0.219-0.313-0.313c-0.55,0.541-1.287,0.859-2.112,0.859   c-0.25,0-0.51-0.035-0.753-0.086c-0.046,0.162-0.104,0.32-0.104,0.506c0.332,0.049,0.625,0.215,0.856,0.464   c0,0.011,0,0.013,0,0.013c0.026,0.029,0.055,0.044,0.081,0.078c0,0,0,0.018,0,0.037c0.022,0.012,0.045,0.041,0.067,0.058   c0.008,0.024,0.008,0.028,0.008,0.053c0.011,0.011,0.029,0.044,0.047,0.054c0.015,0.031,0.029,0.038,0.034,0.069   c0,0.009,0,0.04,0.005,0.05c0.014,0.033,0.026,0.048,0.038,0.07c0.011,0.021,0.021,0.041,0.031,0.061   c0.001,0.018,0.001,0.057,0.001,0.074c0,0.021,0,0.036,0.005,0.063c0.008,0.025,0.015,0.05,0.021,0.078   c0.003,0.021,0.008,0.037,0.01,0.049c0.008,0.05,0.012,0.102,0.012,0.145c0,0.063-0.009,0.119-0.021,0.189   c-0.002,0.008-0.005,0.009-0.007,0.024c-0.016,0.062-0.02,0.118-0.02,0.177c0.189,0.078,0.4,0.119,0.627,0.119   c0.787,0,1.478-0.502,1.717-1.193c-0.231-0.272-0.388-0.636-0.388-1.033C235.988,41.482,236.046,41.26,236.144,41.056"/>
	<path fill="#FFF100" d="M232.863,42.137c0-0.039,0-0.077,0-0.115c-0.081-0.018-0.156-0.029-0.237-0.029   c-0.781,0-1.406,0.652-1.406,1.443c0,0.785,0.625,1.438,1.406,1.438c0.678,0,1.233-0.449,1.406-1.047   C233.331,43.557,232.863,42.902,232.863,42.137"/>
	<path fill="#FFF100" d="M240.281,38.045c-0.388-0.103-0.781-0.271-1.094-0.489c-0.784,0.296-1.638,0.46-2.544,0.46   c0.021,0,0.041,0,0.044-0.002c0.028,0.188,0.06,0.385,0.06,0.578c0,0.703-0.257,1.365-0.683,1.875   c0.124,0.078,0.235,0.134,0.35,0.197c0.273-0.3,0.667-0.473,1.117-0.473c0.443,0,0.857,0.197,1.123,0.508   c0.965-0.426,1.627-1.374,1.627-2.494C240.281,38.16,240.281,38.092,240.281,38.045"/>
	<path fill="#F9A51A" d="M236.065,40.467c0.426-0.51,0.683-1.172,0.683-1.875c0-0.193-0.03-0.391-0.06-0.577   c-0.003,0-0.023,0.001-0.044,0.001c-0.589,0-1.196-0.074-1.75-0.205c0,0.121-0.02,0.266-0.02,0.396   C234.874,39.152,235.363,39.983,236.065,40.467"/>
	<path fill="#FFF100" d="M244.269,33.75c-0.372,0-0.706-0.043-1.019-0.153c-0.625,1.521-1.759,2.771-3.194,3.552   c0.143,0.271,0.211,0.58,0.226,0.896c0.237,0.049,0.503,0.078,0.781,0.078c0.16,0,0.35-0.008,0.535-0.037   c-0.021-0.041-0.04-0.078-0.058-0.119c-0.002,0-0.005-0.008-0.009-0.019c0-0.03,0-0.063,0-0.097c0-0.027,0-0.041-0.003-0.063   c-0.006-0.018-0.012-0.057-0.016-0.08c-0.007-0.052-0.012-0.092-0.012-0.136c0-0.856,0.682-1.55,1.527-1.55   c0.065,0,0.111,0.005,0.146,0.012c0.022,0.002,0.048,0.007,0.075,0.01c0.004,0.008,0.054,0.01,0.081,0.01   c0.006,0,0.037,0.004,0.069,0.012c0.006,0.008,0.037,0.02,0.078,0.025c0.009,0,0.02,0.003,0.054,0.016   c0.03,0.012,0.03,0.025,0.063,0.025c0.035,0.004,0.049,0.018,0.059,0.033c0.031,0.004,0.061,0.006,0.065,0.021   c0.016,0.018,0.053,0.023,0.081,0.031c0,0.014,0.008,0.029,0.03,0.029c0.051,0.041,0.126,0.078,0.184,0.119   c0.255-0.469,0.411-1.016,0.411-1.6C244.425,34.414,244.344,34.076,244.269,33.75"/>
	<path fill="#F9A51A" d="M227.238,27.619c0-1.088-0.765-1.996-1.784-2.23c-0.016,0.156-0.016,0.32-0.016,0.493   c0,0.991,0.37,1.896,0.967,2.595c0.127-0.086,0.249-0.176,0.364-0.258c0.018-0.015,0.042-0.018,0.063-0.018   c0.107-0.078,0.249-0.156,0.386-0.227v-0.001C227.238,27.859,227.238,27.742,227.238,27.619"/>
	<path fill="#F26F21" d="M227.218,27.975c-0.293,0.148-0.559,0.305-0.813,0.502c0.127,0.156,0.283,0.308,0.439,0.428   C227.029,28.633,227.156,28.32,227.218,27.975"/>
	<path fill="#FFF100" d="M221.163,25.508c0-0.128,0.029-0.262,0.056-0.387c-0.189-0.104-0.404-0.161-0.644-0.161   c-0.751,0-1.327,0.584-1.327,1.329c0,0.729,0.576,1.328,1.327,1.328c0.568,0,1.044-0.375,1.245-0.888   C221.431,26.466,221.163,26.014,221.163,25.508"/>
	<path fill="#FFF100" d="M229.397,21.914c0.104,0,0.252,0.01,0.352,0.028c0.064-0.225,0.086-0.459,0.086-0.694   c0-0.311-0.028-0.597-0.12-0.879c-0.133,0.02-0.244,0.029-0.37,0.029c-1.21,0-2.188-0.919-2.307-2.104   c-0.04-0.005-0.112-0.013-0.164-0.013c-0.253,0-0.492,0.039-0.717,0.095c-0.013,0.826-0.671,1.492-1.5,1.492   c-0.137,0-0.242-0.026-0.385-0.056c-0.238,0.423-0.36,0.923-0.36,1.436c0,1.291,0.826,2.384,1.984,2.794   C226.533,22.775,227.863,21.914,229.397,21.914"/>
	<path fill="#FFF100" d="M223.153,18.357c0-0.439,0.179-0.837,0.491-1.114c-0.237-0.295-0.602-0.493-1.019-0.493   c-0.678,0-1.243,0.554-1.243,1.243c0,0.679,0.565,1.242,1.243,1.242c0.255,0,0.482-0.069,0.697-0.198   C223.202,18.826,223.153,18.596,223.153,18.357"/>
	<path fill="#FFF100" d="M229.344,15.779c0.113,0,0.237,0,0.336,0.021c0.007-0.059,0.014-0.102,0.014-0.166   c0-1.141-0.915-2.056-2.068-2.056c-1.129,0-2.044,0.915-2.044,2.056c0,0.948,0.638,1.747,1.5,1.981   C227.302,16.561,228.231,15.779,229.344,15.779"/>
	<path fill="#FFF100" d="M235.602,16.464c0-0.763,0.314-1.466,0.841-1.966c-0.434-0.34-0.924-0.601-1.45-0.767   c-0.712,0.735-1.694,1.192-2.806,1.192c-0.45,0-0.887-0.082-1.287-0.224c-0.377,0.339-0.664,0.729-0.874,1.175   c0.952,0.295,1.633,1.169,1.633,2.211c0,0.911-0.515,1.699-1.296,2.069c0.773,1.068,2.009,1.759,3.413,1.759   c0.024,0,0.086,0,0.106,0c0.632-1.302,1.967-2.209,3.512-2.209c0.021,0,0.051,0.003,0.075,0.003   c0.081-0.178,0.156-0.372,0.237-0.568C236.515,18.841,235.602,17.763,235.602,16.464"/>
	<path fill="#FFF100" d="M236.644,23.721c1.61,0,3.109,0.538,4.324,1.456c0.176-0.43,0.304-0.899,0.332-1.389   c-1.051-0.431-1.8-1.447-1.8-2.643c0-0.254,0.053-0.515,0.111-0.757c-0.607-0.425-1.361-0.663-2.143-0.682   c-0.7,1.278-2.031,2.166-3.587,2.207c-0.238,0.506-0.387,1.088-0.387,1.681c0,0.279,0.048,0.547,0.089,0.819   C234.504,23.975,235.551,23.721,236.644,23.721"/>
	<path fill="#FFF100" d="M244.293,21.71c-0.887-0.573-1.451-1.556-1.451-2.676c0-0.232,0.021-0.453,0.071-0.677   c-0.192-0.038-0.363-0.05-0.559-0.05c-1.298,0-2.401,0.879-2.743,2.081c1.019,0.703,1.688,1.875,1.688,3.206   c0,0.075,0,0.124,0,0.194c0.313,0.124,0.687,0.197,1.055,0.197c0.896,0,1.705-0.424,2.227-1.081   C244.425,22.539,244.342,22.128,244.293,21.71"/>
	<path fill="#FFF100" d="M247.614,29.57c-1.401-0.143-2.536-1.225-2.72-2.619c-0.226-0.036-0.415-0.048-0.625-0.048   c-0.546,0-1.019,0.124-1.487,0.323c0.637,1.07,1.019,2.311,1.019,3.642c0,0.588-0.081,1.161-0.223,1.708   c0.298,0.344,0.535,0.744,0.691,1.175v0.001c0.521,0,1.013-0.119,1.457-0.316c-0.132-0.241-0.186-0.506-0.186-0.781   c0-1.029,0.835-1.864,1.854-1.864c0.077,0,0.165,0.011,0.251,0.028c0.035-0.16,0.059-0.322,0.059-0.491   C247.703,30.075,247.655,29.812,247.614,29.57"/>
	<path fill="#FFF100" d="M248.636,33.307c-0.013-0.016-0.024-0.027-0.037-0.027c-0.036-0.055-0.075-0.113-0.111-0.156   c0-0.027-0.009-0.037-0.028-0.064c-0.044-0.051-0.053-0.092-0.081-0.137c-0.019-0.033-0.038-0.051-0.047-0.07   c0-0.049-0.027-0.1-0.056-0.154c-0.017-0.018-0.025-0.043-0.025-0.08c-0.002-0.041-0.024-0.086-0.045-0.141   c-0.012-0.021-0.025-0.057-0.03-0.088c0-0.047,0-0.102-0.003-0.162c-0.006-0.02-0.014-0.041-0.019-0.076   c-0.014-0.08-0.022-0.158-0.022-0.236s0.008-0.156,0.019-0.224c0.003-0.011,0.007-0.028,0.011-0.052   c0.011-0.049,0.015-0.115,0.015-0.159v-0.041c0.018-0.071,0.042-0.122,0.071-0.19c0.004,0,0.004-0.003,0.004-0.014   c0-0.064,0.033-0.143,0.076-0.196c-0.226-0.112-0.442-0.19-0.682-0.22c-0.17,1.155-0.892,2.125-1.919,2.615   c0.285,0.627,0.934,1.06,1.668,1.06c0.662,0,1.25-0.337,1.563-0.855C248.836,33.546,248.719,33.436,248.636,33.307"/>
	<path fill="#FFF100" d="M251.456,31.852c-0.765-0.484-1.331-1.229-1.563-2.117c-0.706,0.154-1.307,0.654-1.567,1.303   c0.549,0.323,0.939,0.914,0.939,1.617c0,0.354-0.125,0.703-0.31,0.982c0.388,0.309,0.856,0.502,1.406,0.502   c0.156,0,0.313-0.02,0.459-0.043c-0.037-0.15-0.059-0.289-0.059-0.43C250.763,32.967,251.034,32.342,251.456,31.852"/>
	<path fill="#FFF100" d="M255.836,28.045c0-0.096,0.003-0.193,0.008-0.271c-1.721-0.078-3.219-1.016-4.052-2.397   c-0.311,0.155-0.58,0.354-0.846,0.586c0.041,0.171,0.041,0.364,0.041,0.555c0,1.015-0.469,1.91-1.25,2.466   c0.021,0.265,0.075,0.51,0.156,0.752c0.156-0.03,0.313-0.049,0.469-0.049c0.938,0,1.767,0.602,2.085,1.447   c0.334-0.148,0.696-0.234,1.082-0.234c0.814,0,1.521,0.35,2.023,0.896c0.354-0.234,0.666-0.518,0.903-0.859   C256.063,30.047,255.836,29.064,255.836,28.045"/>
	<path fill="#FFF100" d="M251.451,20.878c-0.051,0.001-0.076,0.006-0.104,0.006c-0.9,0-1.69-0.298-2.347-0.808   c-0.438,1.243-1.606,2.133-3.007,2.133c-0.318,0-0.631-0.061-0.943-0.145c-0.104,0.309-0.263,0.59-0.469,0.839   c0.236,0.578,0.625,1.083,1.111,1.476c0.568-0.583,1.358-0.944,2.237-0.944c0.945,0,1.808,0.431,2.352,1.112   c0.327-0.229,0.625-0.514,0.862-0.837c-0.053-0.305-0.081-0.621-0.081-0.938C251.063,22.107,251.208,21.461,251.451,20.878"/>
	<path fill="#FFF100" d="M256.128,32.732c-0.141-0.35-0.323-0.662-0.575-0.938c-0.584,0.41-1.304,0.65-2.076,0.65   c-0.321,0-0.627-0.045-0.927-0.118c-0.156,0.876-0.862,1.577-1.729,1.767c0.01,0.176,0.073,0.357,0.127,0.518   c0.271-0.132,0.563-0.213,0.882-0.213c1.011,0,1.813,0.821,1.813,1.832c0,0.059,0,0.12,0,0.174c0.169,0,0.351-0.031,0.522-0.07   c-0.001-0.017-0.006-0.045-0.006-0.07C254.16,34.77,254.948,33.477,256.128,32.732"/>
	<path fill="#FFF100" d="M251.755,32.025c-0.024-0.013-0.05-0.023-0.067-0.033C251.705,32.002,251.731,32.013,251.755,32.025"/>
	<path fill="#FFF100" d="M252.256,32.24c-0.008-0.002-0.015-0.006-0.019-0.008C252.241,32.234,252.248,32.238,252.256,32.24"/>
	<path fill="#FFF100" d="M252,32.148c0-0.009-0.017-0.016-0.035-0.023C251.984,32.133,252,32.14,252,32.148"/>
	<path fill="#F9A51A" d="M250.822,34.095c0.866-0.19,1.572-0.892,1.729-1.768c-0.091-0.022-0.194-0.061-0.295-0.087   c-0.007-0.002-0.014-0.006-0.018-0.008c-0.081-0.023-0.156-0.052-0.237-0.084c0-0.009-0.018-0.016-0.035-0.023   c-0.072-0.029-0.142-0.063-0.21-0.099c-0.024-0.013-0.05-0.024-0.067-0.034c-0.075-0.041-0.156-0.082-0.231-0.141   c-0.422,0.49-0.693,1.115-0.693,1.814C250.763,33.806,250.785,33.945,250.822,34.095"/>
	<path fill="#FFF100" d="M255.062,43.398c0.037,0,0.063,0,0.063,0c0.121-0.197,0.168-0.418,0.168-0.654   c0-0.758-0.618-1.377-1.376-1.377c-0.757,0-1.376,0.619-1.376,1.377c0,0.732,0.553,1.32,1.259,1.391   C254.049,43.692,254.523,43.398,255.062,43.398"/>
	<path fill="#FFF100" d="M266.753,34.258c-1.078,0.625-2.328,1.003-3.68,1.003c-0.237,0-0.47-0.019-0.697-0.032   c0.092,0.322,0.123,0.67,0.123,1.035c0,0.955-0.323,1.822-0.851,2.525c0.215,0.338,0.508,0.627,0.82,0.872   c0.526-0.521,1.236-0.835,2.026-0.835c0.786,0,1.523,0.341,2.036,0.881c0.872-0.625,1.46-1.651,1.46-2.802   C267.991,35.834,267.498,34.883,266.753,34.258"/>
	<path fill="#FFF100" d="M264.533,40.352c-0.77,0-1.487-0.26-2.064-0.69c-0.075,0.093-0.156,0.181-0.231,0.278   c0.455,0.424,0.724,1.037,0.724,1.699c0,0.683-0.284,1.291-0.749,1.719c0.501,0.703,1.351,1.148,2.284,1.148   c1.566,0,2.816-1.264,2.816-2.836c0-0.771-0.298-1.45-0.781-1.961C265.988,40.117,265.281,40.352,264.533,40.352"/>
	<path fill="#FFF100" d="M261.138,39.361c-0.692,0.6-1.557,0.99-2.494,1.068c-0.23,0.35-0.342,0.765-0.342,1.209   c0,0.197,0.029,0.391,0.076,0.588c0.088-0.011,0.178-0.023,0.266-0.023c0.988,0,1.794,0.779,1.853,1.766   c0.03,0.004,0.098,0.012,0.136,0.012c0.596,0,1.15-0.232,1.58-0.623c-0.368-0.469-0.575-1.053-0.575-1.688   c0-0.656,0.213-1.246,0.601-1.73C261.925,39.648,261.531,39.451,261.138,39.361"/>
	<path fill="#FFF100" d="M258.378,42.227c-0.909,0.115-1.609,0.896-1.609,1.834c0,1.035,0.843,1.875,1.875,1.875   c1.013,0,1.861-0.84,1.861-1.875c0-0.033-0.006-0.062-0.009-0.093C259.468,43.904,258.635,43.187,258.378,42.227"/>
	<path fill="#FFF100" d="M269.344,34.152c0.237-0.598,0.852-1.008,1.527-1.008c0.144,0,0.277,0.02,0.429,0.057   c0.36-0.438,0.565-1.012,0.565-1.619c0-0.164-0.021-0.32-0.025-0.471c-0.152,0.035-0.309,0.059-0.466,0.059   c-0.624,0-1.164-0.271-1.512-0.695c-0.438,1.229-1.213,2.299-2.169,3.117c0.428,0.354,0.995,0.563,1.599,0.563   C269.317,34.154,269.34,34.152,269.344,34.152"/>
	<path fill="#FFF100" d="M267.156,24.691c0.313-1.372,1.487-2.417,2.951-2.518c-0.055-0.182-0.058-0.372-0.058-0.558   c0-0.092,0-0.203,0-0.291c-0.394,0.171-0.845,0.276-1.317,0.276c-0.87,0-1.684-0.353-2.276-0.938   c-0.237,0.469-0.394,0.99-0.394,1.554C266.063,23.195,266.497,24.063,267.156,24.691"/>
	<path fill="#FFF100" d="M271.925,19.201"/>
	<polyline fill="#FFF100" points="272.156,19.343 272.156,19.339 272.156,19.343  "/>
	<path fill="#FFF100" d="M271.96,18.828C272,18.67,272,18.514,272,18.34c0-1.051-0.492-1.982-1.263-2.583   c-0.375,0.749-1.156,1.268-2.019,1.268c-0.878,0-1.638-0.501-2.025-1.231c-0.725,0.604-1.21,1.511-1.21,2.547   c0,0.917,0.364,1.736,0.973,2.323c0.58-1.126,1.777-1.891,3.134-1.891c0.616,0,1.211,0.156,1.71,0.429   C271.509,19.06,271.722,18.933,271.96,18.828"/>
	<path fill="#FFF100" d="M268.733,15.076c0.768,0,1.453,0.26,2.005,0.681c0.143-0.293,0.232-0.64,0.232-0.993   c0-1.25-1.006-2.258-2.251-2.258c-0.43,0-0.818,0.114-1.166,0.313c0.044,0.127,0.068,0.259,0.068,0.383   c0,0.755-0.488,1.406-1.165,1.641c0,0.35,0.095,0.666,0.237,0.952C267.258,15.351,267.968,15.076,268.733,15.076"/>
	<path fill="#FFF100" d="M256.375,26.383L256.375,26.383c0-0.016-0.014-0.036-0.038-0.057   C256.362,26.347,256.375,26.367,256.375,26.383"/>
	<path fill="#FFF100" d="M256.955,27.398L256.955,27.398z"/>
	<path fill="#FFF100" d="M256.769,26.998L256.769,26.998c0-0.006,0-0.011,0-0.027C256.769,26.987,256.769,26.992,256.769,26.998"/>
	<polyline fill="#FFF100" points="256.613,26.705 256.613,26.705 256.613,26.705 256.613,26.705  "/>
	<path fill="#F9A51A" d="M257.55,23.39c-0.65,0.773-1.157,1.687-1.422,2.701c0.414,0.433,0.744,0.979,0.931,1.595   c1.116-0.225,2.075-0.813,2.795-1.631C258.727,25.545,257.875,24.57,257.55,23.39"/>
	<path fill="#FFF100" d="M260.828,21.174c0.703-0.232,1.455-0.354,2.245-0.354c0.883,0,1.719,0.156,2.494,0.439   c-0.361-1.415-1.436-2.537-2.803-2.957c-0.371,0.408-0.921,0.68-1.546,0.68c-0.503,0-0.979-0.194-1.325-0.51   c-0.25,0.103-0.48,0.238-0.706,0.391C259.931,19.451,260.519,20.258,260.828,21.174"/>
	<path fill="#FFF100" d="M259.894,18.473c0.488-0.231,1.057-0.35,1.638-0.35c0.433,0,0.852,0.06,1.233,0.178   c0.329-0.37,0.521-0.841,0.521-1.378c0-1.135-0.908-2.044-2.067-2.044c-0.231,0-0.469,0.041-0.696,0.119   c-0.004,0.822-0.554,1.504-1.335,1.689c0,0.077,0,0.155,0,0.236C259.188,17.539,259.447,18.085,259.894,18.473"/>
	<path fill="#FFF100" d="M260.523,14.998c0.001,0,0.002-0.009,0.002-0.019c0-0.684-0.38-1.269-0.943-1.565   c-0.463,0.609-1.175,1-1.985,1c-0.166,0-0.326-0.027-0.479-0.051c-0.068,0.193-0.117,0.401-0.117,0.617   c0,0.975,0.781,1.771,1.776,1.771c0.142,0,0.275-0.031,0.411-0.063C259.273,15.901,259.813,15.262,260.523,14.998"/>
	<path fill="#FFF100" d="M258.777,13.208c0.286,0,0.567,0.071,0.805,0.206c0.321-0.419,0.538-0.954,0.538-1.525   c0-1.382-1.145-2.516-2.523-2.516c-1.38,0-2.525,1.134-2.525,2.516c0,1.234,0.892,2.25,2.047,2.474   C257.379,13.69,258.019,13.208,258.777,13.208"/>
	<path fill="#F9A51A" d="M253.024,18.275c0,0.67,0.295,1.295,0.722,1.753c0.865-0.698,1.42-1.772,1.42-2.963   c0-0.433-0.074-0.854-0.196-1.244C253.866,16.092,253.024,17.082,253.024,18.275"/>
	<path fill="#FFF100" d="M251.379,19.473c0.074,0.081,0.1,0.164,0.152,0.252c0,0.001,0,0.001,0,0.001   c0.081,0.16,0.156,0.35,0.221,0.532c0.329-0.586,0.798-1.095,1.342-1.506c-0.044-0.159-0.07-0.317-0.07-0.478   c0-1.192,0.843-2.183,1.945-2.454c-0.532-1.495-1.95-2.579-3.622-2.579c-0.487,0-0.94,0.083-1.378,0.248   c0.046,0.18,0.078,0.377,0.078,0.571c0,1.226-0.703,2.297-1.711,2.853c0.227,0.224,0.383,0.471,0.537,0.751   c0.011,0.012,0.065,0.028,0.083,0.03c0.075,0.016,0.156,0.038,0.231,0.056c0.057,0.022,0.083,0.025,0.156,0.05   c0.051,0.009,0.102,0.044,0.156,0.059c0.068,0.029,0.098,0.037,0.156,0.069c0.061,0.018,0.105,0.04,0.156,0.078   c0.063,0.019,0.087,0.038,0.155,0.067c0.082,0.049,0.157,0.089,0.238,0.155c0.063,0.029,0.092,0.063,0.156,0.098   c0.028,0.031,0.075,0.065,0.103,0.088c0.054,0.041,0.114,0.085,0.146,0.13c0.045,0.018,0.063,0.046,0.091,0.079   c0.048,0.045,0.119,0.086,0.152,0.145c0.019,0.019,0.035,0.019,0.052,0.038c0.156,0.196,0.322,0.409,0.469,0.644   C251.375,19.451,251.375,19.46,251.379,19.473"/>
	<path fill="#F9A51A" d="M253.745,20.028c-0.339-0.342-0.57-0.778-0.651-1.275c-0.544,0.41-1.013,0.92-1.342,1.505   c0.05,0.184,0.092,0.379,0.124,0.583C252.58,20.742,253.232,20.452,253.745,20.028"/>
	<path fill="#F26F21" d="M255.073,17.863c-0.729,0.144-1.418,0.457-1.979,0.89c0.081,0.497,0.313,0.933,0.651,1.275   C254.425,19.492,254.894,18.731,255.073,17.863"/>
	<path fill="#FFF100" d="M244.425,16.298c0.469-0.275,1.011-0.437,1.568-0.437c0.603,0,1.144,0.162,1.612,0.436   c0.257-1.294,1.174-2.35,2.363-2.808c-0.25-1.532-1.583-2.688-3.2-2.688c-0.237,0-0.469,0.019-0.678,0.068   c0.067,0.255,0.128,0.507,0.128,0.775c0,1.518-1.184,2.729-2.67,2.807C243.641,15.165,243.956,15.813,244.425,16.298"/>
	<path fill="#FFF100" d="M243.506,14.061c0-1.563,1.116-2.881,2.585-3.193c-0.341-1.179-1.427-2.042-2.688-2.042   c-0.229,0-0.419,0.037-0.622,0.078c0,0.078,0.008,0.173,0.008,0.273c0,1.486-0.817,2.774-2.039,3.434   c0.067,0.165,0.153,0.339,0.237,0.498c0.156-0.056,0.313-0.079,0.49-0.079c0.835,0,1.537,0.616,1.616,1.421   c0.103,0.002,0.205,0.012,0.31,0.012c0.035,0,0.084-0.008,0.146-0.012C243.524,14.335,243.506,14.193,243.506,14.061"/>
	<path fill="#FFF100" d="M239.833,14.674c0-0.182,0.043-0.339,0.076-0.495c-0.424-0.306-0.953-0.469-1.532-0.469   c-0.752,0-1.452,0.303-1.935,0.789c0.927,0.774,1.502,1.938,1.502,3.233c0,0.5-0.082,0.974-0.238,1.406   c0.23,0.053,0.444,0.078,0.671,0.078c1.517,0,2.767-1.228,2.767-2.753c0-0.06,0-0.132-0.007-0.187   C240.384,16.109,239.833,15.46,239.833,14.674"/>
	<path fill="#FFF100" d="M260.594,6.388L260.594,6.388c-0.231-0.126-0.48-0.192-0.781-0.192c-0.873,0-1.61,0.718-1.61,1.615   c0,0.9,0.737,1.625,1.61,1.625c0.913,0,1.644-0.725,1.644-1.625c0-0.075-0.003-0.141-0.017-0.206   C260.939,7.42,260.594,6.948,260.594,6.388"/>
	<path fill="#FFF100" d="M254.188,6.289c0-0.16,0.012-0.313,0.066-0.469c-0.579-0.438-1.293-0.703-2.062-0.703   c-1.842,0-3.354,1.497-3.354,3.359c0,1.843,1.513,3.357,3.354,3.357c1.841,0,3.354-1.514,3.354-3.357   c0-0.082-0.01-0.163-0.02-0.243C254.738,7.929,254.188,7.18,254.188,6.289"/>
	<path fill="#FFF100" d="M235.06,9.842c-1.224-0.259-2.151-1.328-2.197-2.637c-0.156-0.027-0.351-0.057-0.55-0.057   c-0.316,0.506-0.911,0.831-1.563,0.831c-0.269,0-0.541-0.05-0.774-0.166c-0.319,0.231-0.632,0.523-0.863,0.856   c0.081,0.234,0.156,0.49,0.156,0.766c0,0.712-0.394,1.326-0.969,1.655c0.031,1.668,1.099,3.087,2.6,3.609   c0.733-0.717,1.745-1.146,2.877-1.146c0.411,0,0.828,0.057,1.216,0.177c0.526-0.53,0.876-1.199,1.016-1.954   C235.521,11.248,235.206,10.585,235.06,9.842"/>
	<path fill="#F9A51A" d="M235.06,9.842c0.146,0.744,0.461,1.406,0.948,1.936c0.055-0.244,0.069-0.489,0.069-0.745   c0-0.405-0.052-0.788-0.171-1.15c-0.075,0.007-0.17,0.015-0.276,0.015C235.438,9.897,235.256,9.882,235.06,9.842"/>
	<path fill="#FFF100" d="M238.9,5.273c1.932,0,3.494,1.376,3.83,3.203c0.364-0.166,0.689-0.406,0.977-0.703   c-0.641-0.613-1.04-1.47-1.04-2.422c0-0.677,0.196-1.317,0.56-1.838c-0.465-0.337-1.044-0.531-1.65-0.531   c-1.377,0-2.544,0.991-2.809,2.291C238.8,5.273,238.869,5.273,238.9,5.273"/>
	<path fill="#F9A51A" d="M238.9,5.273c-0.03,0-0.1,0-0.133,0c-0.048,0.194-0.048,0.39-0.048,0.584c0,1.573,1.261,2.854,2.856,2.854   c0.425,0,0.818-0.079,1.154-0.235C242.394,6.649,240.831,5.273,238.9,5.273"/>
	<path fill="#FFF100" d="M237.793,5.429c-0.48-0.636-1.267-1.056-2.163-1.056c-1.518,0-2.768,1.242-2.768,2.769   c0,0.014,0,0.043,0,0.063c0.871,0.154,1.638,0.603,2.215,1.231C235.363,6.992,236.423,5.843,237.793,5.429"/>
	<path fill="#F9A51A" d="M235.077,8.436c0.366,0.405,0.673,0.9,0.829,1.447c1.406-0.14,2.5-1.318,2.5-2.74   c0-0.654-0.231-1.244-0.613-1.713C236.423,5.843,235.363,6.992,235.077,8.436"/>
	<path fill="#FFF100" d="M236.219,0.623c0.924,0,1.644,0.744,1.644,1.662c0,0.917-0.72,1.66-1.644,1.66   c-0.922,0-1.641-0.744-1.641-1.66C234.578,1.367,235.297,0.623,236.219,0.623"/>
	<path fill="#FFF100" d="M240.317-0.508c0.799,0,1.449,0.638,1.449,1.436c0,0.79-0.65,1.427-1.449,1.427   c-0.798,0-1.441-0.638-1.441-1.427C238.875,0.129,239.519-0.508,240.317-0.508"/>
	<path fill="#FFF100" d="M244.969-0.888c0.625,0,1.175,0.536,1.175,1.187c0,0.646-0.55,1.183-1.175,1.183   c-0.666,0-1.185-0.538-1.185-1.183C243.784-0.352,244.303-0.888,244.969-0.888"/>
	<path fill="#FFF100" d="M251.56-0.874c1.518,0,2.722,1.225,2.722,2.722c0,1.509-1.204,2.723-2.722,2.723   c-1.51,0-2.722-1.213-2.722-2.723C248.838,0.351,250.05-0.874,251.56-0.874"/>
	<path fill="#FFF100" d="M257,4.336c-0.264,0.198-0.604,0.317-0.944,0.317c-0.306,0-0.545-0.068-0.774-0.199   c-0.536,0.285-0.905,0.779-1.027,1.366c0.715,0.563,1.208,1.429,1.273,2.413c0.223,0.087,0.473,0.125,0.74,0.125   c1.135,0,2.063-0.932,2.063-2.069C258.331,5.389,257.781,4.648,257,4.336"/>
	<path fill="#F9A51A" d="M255.528,8.233c-0.065-0.983-0.559-1.85-1.273-2.413c-0.055,0.154-0.066,0.309-0.066,0.469   C254.188,7.181,254.738,7.929,255.528,8.233"/>
	<path fill="#FFF100" d="M255.281,4.454c0.288-0.159,0.625-0.244,0.986-0.244c0.264,0,0.501,0.047,0.732,0.126   c0.394-0.285,0.662-0.761,0.662-1.292c0-0.897-0.737-1.631-1.606-1.631c-0.916,0-1.631,0.734-1.631,1.631   C254.425,3.652,254.76,4.179,255.281,4.454"/>
	<path fill="#F9A51A" d="M256.268,4.21c-0.361,0-0.698,0.084-0.986,0.243c0.229,0.132,0.469,0.2,0.773,0.2   c0.341,0,0.682-0.119,0.945-0.317C256.769,4.257,256.531,4.21,256.268,4.21"/>
	<path fill="#FFF100" d="M246.033,1.992c-1.177,0-2.22,0.6-2.808,1.521c0.73,0.511,1.203,1.37,1.203,2.345   c0,0.741-0.266,1.406-0.723,1.916c0.592,0.584,1.419,0.938,2.327,0.938c1.847,0,3.365-1.496,3.365-3.36   C249.399,3.497,247.88,1.992,246.033,1.992"/>
	<path fill="#F9A51A" d="M243.226,3.512c-0.363,0.521-0.56,1.161-0.56,1.839c0,0.953,0.399,1.808,1.04,2.422   c0.456-0.509,0.723-1.175,0.723-1.916C244.429,4.882,243.956,4.023,243.226,3.512"/>
	<path fill="#FFF100" d="M261.901,5.081c-0.728,0-1.307,0.583-1.307,1.308c0.457,0.247,0.781,0.682,0.846,1.217   c0.138,0.049,0.293,0.09,0.461,0.09c0.725,0,1.286-0.587,1.286-1.307C263.187,5.664,262.625,5.081,261.901,5.081"/>
	<path fill="#F9A51A" d="M261.44,7.605c-0.064-0.535-0.389-0.97-0.846-1.217C260.594,6.948,260.939,7.42,261.44,7.605"/>
	<path fill="#FFF100" d="M262.938,8.703c0.712,0,1.315,0.581,1.315,1.295c0,0.718-0.604,1.299-1.315,1.299   c-0.7,0-1.301-0.581-1.301-1.299C261.637,9.284,262.238,8.703,262.938,8.703"/>
	<path fill="#FFF100" d="M266.278,7.851c0.804,0,1.429,0.643,1.429,1.444c0,0.79-0.625,1.447-1.429,1.447   c-0.808,0-1.465-0.657-1.465-1.447C264.813,8.494,265.47,7.851,266.278,7.851"/>
	<path fill="#F9A51A" d="M240.584,11.645c0,0.347,0.053,0.66,0.166,0.966c1.222-0.66,2.039-1.947,2.039-3.434   c0-0.1-0.008-0.195-0.008-0.273C241.531,9.179,240.584,10.307,240.584,11.645"/>
	<path fill="#F9A51A" d="M243.506,14.061c0,0.132,0.018,0.275,0.043,0.391c1.486-0.078,2.67-1.289,2.67-2.807   c0-0.269-0.061-0.521-0.128-0.777C244.622,11.18,243.506,12.498,243.506,14.061"/>
	<path fill="#F9A51A" d="M260.828,21.174c0.159,0.505,0.234,1.047,0.234,1.599c0,1.25-0.459,2.396-1.209,3.282   c0.509,0.232,1.08,0.35,1.678,0.35c2.293,0,4.144-1.848,4.144-4.141c0-0.35-0.028-0.678-0.107-1.004   c-0.775-0.283-1.611-0.439-2.494-0.439C262.283,20.82,261.531,20.941,260.828,21.174"/>
	<path fill="#FFF100" d="M229.976,7.813c0.628-0.431,1.399-0.672,2.211-0.672c0.051,0,0.093,0.006,0.126,0.006   c0.221-0.312,0.316-0.666,0.316-1.056c0-1.049-0.839-1.888-1.879-1.888c-1.034,0-1.875,0.838-1.875,1.888   C228.875,6.87,229.337,7.53,229.976,7.813"/>
	<path fill="#F9A51A" d="M232.187,7.142c-0.812,0-1.583,0.24-2.211,0.671c0.233,0.116,0.506,0.166,0.774,0.166   c0.651,0,1.246-0.325,1.563-0.831C232.281,7.148,232.238,7.142,232.187,7.142"/>
	<path fill="#FFF100" d="M228.296,11.033c0-0.889,0.294-1.711,0.816-2.363c-0.313-0.663-0.96-1.131-1.723-1.131   c-1.06,0-1.898,0.859-1.898,1.897c0,1.037,0.839,1.891,1.898,1.891c0.316,0,0.629-0.085,0.91-0.234   C228.3,11.063,228.296,11.054,228.296,11.033"/>
	<path fill="#F9A51A" d="M228.3,11.092c0.575-0.33,0.969-0.943,0.969-1.656c0-0.276-0.075-0.531-0.156-0.766   c-0.521,0.652-0.816,1.474-0.816,2.363C228.296,11.054,228.3,11.063,228.3,11.092"/>
	<path fill="#FFF100" d="M224.581,11.446c0.796,0,1.463,0.662,1.463,1.46c0,0.804-0.667,1.461-1.463,1.461   c-0.792,0-1.459-0.657-1.459-1.461C223.122,12.107,223.789,11.446,224.581,11.446"/>
	<path fill="#F9A51A" d="M222.781,32.889c0.772-0.193,1.331-0.859,1.331-1.667c0-0.132-0.03-0.278-0.081-0.401   C223.365,31.285,222.891,32.029,222.781,32.889"/>
	<path fill="#FFF100" d="M229.714,20.369c0.23-0.037,0.443-0.101,0.648-0.214c-0.475-0.676-0.781-1.522-0.781-2.422   c0-0.663,0.156-1.291,0.444-1.858c-0.125-0.029-0.213-0.055-0.346-0.073c-0.086,1.067-0.961,1.894-2.055,1.894   c-0.181,0-0.385-0.027-0.544-0.078c-0.034,0.156-0.061,0.313-0.061,0.469c0,0.078,0.007,0.145,0.017,0.208   C228.301,18.357,229.344,19.217,229.714,20.369"/>
	<path fill="#F9A51A" d="M227.037,18.293c0.119,1.186,1.097,2.104,2.307,2.104c0.126,0,0.237-0.009,0.37-0.029   C229.344,19.217,228.301,18.357,227.037,18.293"/>
	<path fill="#F9A51A" d="M227.081,17.617c0.159,0.052,0.363,0.078,0.544,0.078c1.094,0,1.969-0.827,2.055-1.894   c-0.099-0.021-0.223-0.021-0.336-0.021C228.231,15.779,227.302,16.561,227.081,17.617"/>
	<path fill="#F9A51A" d="M231.658,18.085c0-1.041-0.681-1.916-1.633-2.21c-0.288,0.567-0.444,1.195-0.444,1.857   c0,0.9,0.307,1.747,0.781,2.422C231.144,19.784,231.658,18.997,231.658,18.085"/>
	<path fill="#F9A51A" d="M234.992,13.731c-0.388-0.12-0.805-0.177-1.216-0.177c-1.132,0-2.144,0.428-2.877,1.146   c0.4,0.142,0.837,0.225,1.287,0.225C233.298,14.924,234.281,14.466,234.992,13.731"/>
	<path fill="#F9A51A" d="M237.469,19.707c-0.024,0-0.054-0.003-0.075-0.003c-1.545,0-2.88,0.908-3.512,2.209   C235.438,21.873,236.769,20.985,237.469,19.707"/>
	<path fill="#F9A51A" d="M239.612,20.389c-0.058,0.241-0.111,0.504-0.111,0.757c0,1.196,0.749,2.211,1.8,2.643   c0-0.07,0-0.119,0-0.194C241.3,22.264,240.63,21.092,239.612,20.389"/>
	<path fill="#F9A51A" d="M240.831,30.327c0,0.376,0.075,0.751,0.173,1.087c0.022,0,0.045-0.003,0.059-0.003   c1.019,0,1.906,0.462,2.516,1.165c0.141-0.547,0.222-1.12,0.222-1.708c0-1.33-0.382-2.57-1.019-3.642   C241.628,27.775,240.831,28.957,240.831,30.327"/>
	<path fill="#F26F21" d="M241.063,31.412c-0.014,0-0.036,0.002-0.059,0.002c0.371,1.047,1.195,1.865,2.246,2.184   c0.149-0.318,0.237-0.668,0.328-1.021C242.969,31.872,242.081,31.412,241.063,31.412"/>
	<path fill="#F9A51A" d="M243.578,32.576c-0.091,0.354-0.178,0.7-0.328,1.018c0.313,0.109,0.647,0.154,1.019,0.154   C244.113,33.32,243.875,32.918,243.578,32.576"/>
	<path fill="#FFF100" d="M250.947,25.963c-0.106-0.534-0.337-1.012-0.665-1.416c-0.625,0.437-1.36,0.685-2.188,0.685   c-0.902,0-1.726-0.313-2.4-0.854c-0.521,0.557-0.856,1.309-0.856,2.139c0,0.149,0.023,0.291,0.057,0.434   c1.325,0.252,2.419,1.291,2.72,2.619c0.093,0.01,0.194,0.018,0.317,0.018c0.676,0,1.309-0.222,1.807-0.605c0-0.086,0-0.184,0-0.271   C249.738,27.617,250.206,26.639,250.947,25.963"/>
	<path fill="#F9A51A" d="M244.894,26.951c0.184,1.395,1.318,2.477,2.72,2.619C247.313,28.242,246.219,27.203,244.894,26.951"/>
	<path fill="#F9A51A" d="M250.947,25.963c-0.74,0.676-1.209,1.654-1.209,2.748c0,0.088,0,0.186,0,0.271   c0.781-0.557,1.25-1.451,1.25-2.465C250.988,26.326,250.988,26.133,250.947,25.963"/>
	<path fill="#F9A51A" d="M250.281,24.548c-0.544-0.681-1.406-1.112-2.351-1.112c-0.88,0-1.67,0.361-2.238,0.944   c0.676,0.541,1.499,0.853,2.401,0.853C248.92,25.232,249.656,24.983,250.281,24.548"/>
	<path fill="#F9A51A" d="M261.649,38.789c0.527-0.703,0.851-1.569,0.851-2.525c0-0.365-0.034-0.712-0.124-1.035   c-0.279-0.033-0.531-0.074-0.771-0.115c-0.324,0.51-0.53,1.135-0.53,1.793C261.074,37.6,261.3,38.242,261.649,38.789"/>
	<path fill="#F9A51A" d="M261.138,39.361c-0.16-0.032-0.329-0.063-0.506-0.063c-0.834,0-1.591,0.459-1.988,1.131   C259.581,40.352,260.446,39.961,261.138,39.361"/>
	<path fill="#F9A51A" d="M240.281,38.045c-0.015-0.316-0.084-0.625-0.226-0.896c-0.271,0.156-0.557,0.291-0.868,0.407   C239.5,37.773,239.894,37.942,240.281,38.045"/>
	<path fill="#F9A51A" d="M234.658,40.313c-0.783,0-1.427,0.508-1.692,1.203c0.243,0.051,0.503,0.086,0.753,0.086   c0.825,0,1.563-0.318,2.112-0.859C235.519,40.475,235.125,40.313,234.658,40.313"/>
	<path fill="#F9A51A" d="M232.863,42.021c0,0.038,0,0.076,0,0.115c0,0.766,0.469,1.42,1.169,1.689   c0.015-0.121,0.048-0.26,0.048-0.391C234.079,42.719,233.563,42.123,232.863,42.021"/>
	<path fill="#FFF100" d="M240.563,40.586c0.504,0,0.942,0.428,0.942,0.938c0,0.52-0.438,0.938-0.942,0.938   c-0.513,0-0.941-0.418-0.941-0.938C239.621,41.014,240.05,40.586,240.563,40.586"/>
	<path fill="#FFF100" d="M241.508,42.93c0.336,0,0.598,0.271,0.598,0.609c0,0.328-0.262,0.6-0.598,0.6   c-0.351,0-0.602-0.271-0.602-0.6C240.906,43.201,241.157,42.93,241.508,42.93"/>
	<path fill="#FFF100" d="M240.125,44.039c0.394,0,0.706,0.303,0.706,0.688c0,0.383-0.313,0.688-0.706,0.688   c-0.385,0-0.687-0.305-0.687-0.688C239.439,44.342,239.74,44.039,240.125,44.039"/>
	<path fill="#F9A51A" d="M235.602,16.464c0,1.298,0.913,2.376,2.104,2.674c0.156-0.432,0.237-0.906,0.237-1.406   c0-1.295-0.574-2.459-1.501-3.234C235.916,14.998,235.602,15.701,235.602,16.464"/>
	<path fill="#F9A51A" d="M245.993,15.862c-0.558,0-1.1,0.162-1.568,0.437c0.574,0.627,1.406,1.02,2.344,1.02   c0.262,0,0.524-0.031,0.771-0.092c-0.004-0.052-0.014-0.117-0.014-0.162c0-0.27,0.023-0.515,0.079-0.768   C247.137,16.023,246.596,15.862,245.993,15.862"/>
	<path fill="#F26F21" d="M249.138,18.611c-0.019-0.09-0.025-0.176-0.025-0.254c-0.008-0.029-0.019-0.048-0.028-0.078   c-0.035-0.083-0.053-0.176-0.076-0.265c-0.01-0.007-0.019-0.032-0.028-0.048c-0.023-0.103-0.078-0.194-0.106-0.302   c-0.249-0.048-0.512-0.074-0.779-0.074c-0.157,0-0.349,0.026-0.535,0.044c0.147,0.995,0.691,1.857,1.441,2.441   c0.112-0.325,0.188-0.671,0.188-1.041c0-0.114-0.011-0.225-0.03-0.333C249.153,18.67,249.144,18.633,249.138,18.611"/>
	<path fill="#F9A51A" d="M251.347,20.884c0.185,0,0.341-0.027,0.529-0.044c-0.243-1.583-1.438-2.862-3.003-3.176   c0.181,0.421,0.314,0.89,0.314,1.37c0,0.371-0.075,0.716-0.188,1.042C249.656,20.585,250.447,20.884,251.347,20.884"/>
	<path fill="#FFF100" d="M240.988,13.109c-0.508,0.164-0.915,0.561-1.078,1.07c0.685,0.465,1.153,1.217,1.228,2.098   c0.093,0.018,0.236,0.042,0.341,0.042c0.916,0,1.644-0.733,1.644-1.645c0-0.073-0.012-0.145-0.027-0.223   C242.214,14.365,241.445,13.845,240.988,13.109"/>
	<path fill="#F9A51A" d="M240.988,13.109c0.457,0.735,1.227,1.255,2.106,1.342c-0.079-0.805-0.781-1.42-1.616-1.42   C241.3,13.031,241.144,13.053,240.988,13.109"/>
	<path fill="#F9A51A" d="M239.909,14.179c-0.033,0.156-0.076,0.313-0.076,0.496c0,0.785,0.551,1.435,1.304,1.602   C241.063,15.396,240.594,14.644,239.909,14.179"/>
	<path fill="#FFF100" d="M261.906,11.593c0.837,0,1.511,0.673,1.511,1.53c0,0.838-0.674,1.525-1.511,1.525   c-0.843,0-1.543-0.687-1.543-1.525C260.363,12.267,261.063,11.593,261.906,11.593"/>
	<path fill="#F9A51A" d="M257.117,14.363c0.152,0.024,0.313,0.051,0.479,0.051c0.811,0,1.522-0.391,1.985-0.999   c-0.237-0.135-0.519-0.207-0.805-0.207C258.019,13.208,257.379,13.69,257.117,14.363"/>
	<path fill="#F9A51A" d="M259.188,16.688c0.781-0.186,1.331-0.868,1.335-1.689C259.813,15.262,259.273,15.901,259.188,16.688"/>
	<path fill="#F9A51A" d="M259.894,18.473c0.346,0.316,0.822,0.51,1.325,0.51c0.625,0,1.175-0.272,1.546-0.681   c-0.382-0.119-0.801-0.178-1.233-0.178C260.95,18.123,260.382,18.242,259.894,18.473"/>
	<path fill="#FFF100" d="M255.073,17.863c0.326-0.057,0.668-0.09,0.989-0.09c0.706,0,1.399,0.145,2.001,0.405   c-0.045-1.343-1.139-2.428-2.517-2.428c-0.188,0-0.408,0.029-0.578,0.07c0.123,0.39,0.196,0.811,0.196,1.244   C255.165,17.342,255.125,17.611,255.073,17.863"/>
	<path fill="#F9A51A" d="M255.073,17.863c-0.18,0.868-0.648,1.628-1.328,2.165c0.449,0.468,1.095,0.751,1.802,0.751   c1.378,0,2.524-1.125,2.524-2.504c0-0.033-0.006-0.072-0.008-0.097c-0.602-0.26-1.295-0.405-2.001-0.405   C255.741,17.773,255.4,17.807,255.073,17.863"/>
	<path fill="#F9A51A" d="M229.397,21.914c-1.534,0-2.863,0.862-3.501,2.129c0.309,0.106,0.636,0.174,0.978,0.174   c1.396,0,2.566-0.975,2.875-2.275C229.649,21.924,229.5,21.914,229.397,21.914"/>
	<path fill="#FFF100" d="M221.646,21.007c0.748,0,1.327,0.594,1.327,1.327c0,0.728-0.579,1.328-1.327,1.328   c-0.739,0-1.327-0.6-1.327-1.328C220.319,21.601,220.906,21.007,221.646,21.007"/>
	<path fill="#FFF100" d="M222.394,29.516c0.469,0,0.922,0.205,1.231,0.523c0.094-0.119,0.175-0.24,0.246-0.391   c-0.734-0.39-1.241-1.141-1.241-2.029c0-0.035,0.004-0.071,0.007-0.107c-0.06-0.014-0.12-0.014-0.184-0.014   c-0.846,0-1.547,0.695-1.547,1.541c0,0.353,0.116,0.681,0.313,0.932C221.531,29.686,221.925,29.516,222.394,29.516"/>
	<path fill="#F9A51A" d="M222.394,29.516c-0.469,0-0.862,0.17-1.175,0.455c0.29,0.378,0.718,0.615,1.234,0.615   c0.471,0,0.878-0.217,1.172-0.547C223.316,29.721,222.863,29.516,222.394,29.516"/>
	<path fill="#F9A51A" d="M223.981,29.039c0-0.783-0.574-1.422-1.344-1.527c-0.003,0.035-0.007,0.072-0.007,0.108   c0,0.888,0.506,1.64,1.241,2.028C223.956,29.461,223.981,29.258,223.981,29.039"/>
	<path fill="#FFF100" d="M244.014,36.367c-0.497,0.896-1.389,1.552-2.416,1.719c0.199,0.588,0.78,1.016,1.431,1.016   c0.847,0,1.553-0.682,1.553-1.527C244.581,37.08,244.344,36.648,244.014,36.367"/>
	<path fill="#F9A51A" d="M244.014,36.367c-0.282-0.209-0.607-0.345-0.985-0.345c-0.847,0-1.527,0.694-1.527,1.552   c0,0.172,0.03,0.355,0.097,0.512C242.625,37.919,243.517,37.264,244.014,36.367"/>
	<path fill="#F9A51A" d="M247.645,30.82c-0.086-0.018-0.174-0.031-0.251-0.031c-1.019,0-1.854,0.837-1.854,1.864   c0,0.276,0.054,0.542,0.186,0.781C246.753,32.944,247.475,31.975,247.645,30.82"/>
	<path fill="#F9A51A" d="M248.326,31.037c-0.137,0.266-0.195,0.564-0.195,0.877c0,0.703,0.33,1.328,0.825,1.723   c0.185-0.279,0.31-0.629,0.31-0.984C249.266,31.951,248.875,31.36,248.326,31.037"/>
	<path fill="#F9A51A" d="M253.53,30.899c-0.385,0-0.748,0.086-1.082,0.233c0.098,0.237,0.135,0.506,0.135,0.781   c0,0.142-0.023,0.271-0.032,0.413c0.3,0.073,0.605,0.118,0.927,0.118c0.772,0,1.492-0.24,2.076-0.65   C255.05,31.248,254.344,30.899,253.53,30.899"/>
	<path fill="#F26F21" d="M252.582,31.914c0-0.275-0.037-0.545-0.135-0.781c-0.205,0.078-0.366,0.187-0.522,0.305   c0,0.004-0.006,0.008-0.011,0.008c-0.07,0.043-0.146,0.112-0.227,0.161c0,0.015-0.001,0.026-0.015,0.032   c-0.072,0.069-0.142,0.139-0.217,0.213c0.315,0.219,0.7,0.375,1.094,0.476C252.559,32.186,252.582,32.057,252.582,31.914"/>
	<path fill="#F9A51A" d="M250.363,29.686c-0.156,0-0.313,0.018-0.469,0.049c0.231,0.889,0.798,1.633,1.563,2.117   c0.263-0.307,0.616-0.56,0.991-0.719C252.128,30.286,251.3,29.686,250.363,29.686"/>
	<path fill="#FFF100" d="M253.53,36.408c-1.191,0-2.192-0.744-2.581-1.797c-0.586,0.309-0.974,0.927-0.974,1.619   c0,1.011,0.844,1.832,1.855,1.832c0.951,0,1.732-0.721,1.813-1.658C253.609,36.404,253.563,36.408,253.53,36.408"/>
	<path fill="#F9A51A" d="M251.83,34.398c-0.319,0-0.611,0.081-0.883,0.213c0.389,1.053,1.391,1.797,2.582,1.797   c0.033,0,0.079-0.004,0.114-0.004c0-0.054,0-0.115,0-0.174C253.644,35.219,252.841,34.398,251.83,34.398"/>
	<path fill="#FFF100" d="M238.655,40.699c-0.323,0.141-0.699,0.225-1.085,0.225c-0.413,0-0.801-0.104-1.155-0.26   c-0.114,0.115-0.195,0.246-0.271,0.392c0.222,0.312,0.34,0.673,0.34,1.081c0,0.207-0.027,0.422-0.108,0.615   c0.288,0.315,0.706,0.518,1.156,0.518c0.846,0,1.527-0.693,1.527-1.55C239.059,41.326,238.909,40.973,238.655,40.699"/>
	<path fill="#F9A51A" d="M236.144,41.056c-0.098,0.204-0.156,0.427-0.156,0.663c0,0.397,0.156,0.761,0.388,1.033   c0.081-0.193,0.108-0.408,0.108-0.615C236.484,41.729,236.365,41.367,236.144,41.056"/>
	<path fill="#F9A51A" d="M236.414,40.664c0.354,0.156,0.742,0.26,1.155,0.26c0.386,0,0.762-0.084,1.085-0.225   c-0.265-0.311-0.68-0.508-1.123-0.508C237.081,40.191,236.688,40.364,236.414,40.664"/>
	<path fill="#FFF100" d="M222.394,32.93c-0.625,0-1.175-0.33-1.487-0.824c-0.7,0.078-1.266,0.684-1.266,1.428   c0,0.803,0.641,1.441,1.422,1.441c0.804,0,1.463-0.639,1.463-1.441C222.526,33.32,222.469,33.123,222.394,32.93L222.394,32.93"/>
	<path fill="#F9A51A" d="M220.906,32.105c0.313,0.494,0.862,0.824,1.487,0.824l0,0c-0.237-0.494-0.729-0.839-1.331-0.839   C221.021,32.091,220.985,32.096,220.906,32.105"/>
	<path fill="#FFF100" d="M222.647,26.992c0.044,0,0.06,0,0.083,0c0.208-0.703,0.739-1.26,1.399-1.525   c-0.017-0.794-0.657-1.444-1.482-1.444c-0.678,0-1.271,0.469-1.428,1.098c0.394,0.23,0.684,0.658,0.684,1.168   c0,0.156-0.047,0.309-0.082,0.44C222.062,26.898,222.337,26.992,222.647,26.992"/>
	<path fill="#F9A51A" d="M222.73,26.992c0.782-0.041,1.401-0.695,1.401-1.484c0-0.006-0.002-0.022-0.002-0.041   C223.469,25.732,222.938,26.289,222.73,26.992"/>
	<path fill="#F9A51A" d="M221.219,25.122c-0.026,0.125-0.056,0.258-0.056,0.386c0,0.506,0.268,0.958,0.657,1.223   c0.035-0.132,0.082-0.285,0.082-0.441C221.903,25.779,221.613,25.351,221.219,25.122"/>
	<path fill="#FFF100" d="M225.05,37.672c0-0.211,0-0.438,0.068-0.643c-0.01,0-0.019,0-0.028,0c-1.134,0-2.051,0.914-2.051,2.04   s0.917,2.051,2.051,2.051c0.621,0,1.183-0.282,1.548-0.727C225.675,39.867,225.05,38.846,225.05,37.672"/>
	<path fill="#F9A51A" d="M225.118,37.029c-0.068,0.205-0.068,0.432-0.068,0.643c0,1.174,0.625,2.195,1.588,2.722   c0.301-0.354,0.503-0.817,0.503-1.324C227.141,37.953,226.219,37.035,225.118,37.029"/>
	<path fill="#FFF100" d="M230.037,40.176c-0.537,0.389-1.162,0.617-1.862,0.617c-0.462,0-0.862-0.092-1.25-0.248   c-0.313,0.379-0.475,0.859-0.475,1.389c0,1.23,0.986,2.227,2.204,2.227c1.239,0,2.25-0.996,2.25-2.227   C230.905,41.211,230.55,40.586,230.037,40.176"/>
	<path fill="#F9A51A" d="M230.037,40.176c-0.381-0.293-0.85-0.469-1.383-0.469c-0.701,0-1.325,0.332-1.729,0.838   c0.388,0.156,0.788,0.248,1.25,0.248C228.875,40.793,229.5,40.564,230.037,40.176"/>
	<path fill="#FFF100" d="M226.156,18.376c0.001-0.012,0.002-0.019,0.002-0.019c0-0.835-0.661-1.519-1.502-1.519   c-0.388,0-0.76,0.153-1.013,0.404c0.156,0.215,0.231,0.465,0.231,0.75c0,0.443-0.231,0.832-0.553,1.044   c0.172,0.379,0.55,0.673,0.949,0.776C224.668,19.101,225.363,18.579,226.156,18.376"/>
	<path fill="#F9A51A" d="M224.272,19.813c0.142,0.029,0.248,0.055,0.385,0.055c0.829,0,1.487-0.665,1.5-1.491   C225.363,18.579,224.668,19.101,224.272,19.813"/>
	<path fill="#F9A51A" d="M223.153,18.357c0,0.238,0.05,0.469,0.17,0.679c0.321-0.213,0.553-0.601,0.553-1.044   c0-0.285-0.075-0.532-0.231-0.75C223.331,17.521,223.153,17.918,223.153,18.357"/>
	<path fill="#FFF100" d="M245.762,38.164c0.482,0,0.866,0.387,0.866,0.859c0,0.469-0.384,0.859-0.866,0.859   c-0.48,0-0.866-0.391-0.866-0.859C244.896,38.551,245.281,38.164,245.762,38.164"/>
	<path fill="#FFF100" d="M248.478,39.613c0.438,0,0.791,0.373,0.791,0.816c0,0.459-0.353,0.818-0.791,0.818   c-0.459,0-0.836-0.359-0.836-0.818C247.642,39.986,248.019,39.613,248.478,39.613"/>
	<path fill="#FFF100" d="M252.331,44.151c0.45,0,0.835,0.374,0.835,0.812c0,0.464-0.385,0.816-0.835,0.816   c-0.44,0-0.8-0.353-0.8-0.816C251.531,44.525,251.891,44.151,252.331,44.151"/>
	<path fill="#FFF100" d="M255.125,43.398c-0.231,0.434-0.686,0.74-1.208,0.74c-0.042,0-0.073,0-0.117-0.004   c-0.124,0.204-0.192,0.463-0.192,0.729c0,0.803,0.661,1.463,1.454,1.463c0.826,0,1.47-0.66,1.47-1.463   C256.531,44.074,255.906,43.436,255.125,43.398"/>
	<path fill="#F9A51A" d="M253.8,44.135c0.045,0.004,0.075,0.004,0.117,0.004c0.521,0,0.977-0.307,1.208-0.74c0,0-0.026,0-0.063,0   C254.523,43.398,254.049,43.691,253.8,44.135"/>
	<path fill="#FFF100" d="M245.906,40.43c0.354,0,0.625,0.287,0.625,0.633c0,0.348-0.271,0.635-0.625,0.635   c-0.339,0-0.625-0.287-0.625-0.635C245.281,40.717,245.568,40.43,245.906,40.43"/>
	<path fill="#F9A51A" d="M258.378,42.227c0.257,0.96,1.09,1.678,2.118,1.741c-0.059-0.984-0.864-1.766-1.853-1.766   C258.556,42.202,258.466,42.215,258.378,42.227"/>
	<path fill="#F9A51A" d="M262.238,39.939c-0.388,0.484-0.602,1.074-0.602,1.73c0,0.635,0.208,1.219,0.576,1.688   c0.465-0.428,0.749-1.037,0.749-1.719C262.961,40.977,262.693,40.363,262.238,39.939"/>
	<path fill="#F9A51A" d="M270.206,29.18c-0.081,0.44-0.196,0.883-0.344,1.296c0.348,0.423,0.888,0.694,1.512,0.694   c0.157,0,0.313-0.023,0.466-0.059C271.669,30.214,271.033,29.489,270.206,29.18"/>
	<path fill="#F26F21" d="M269.387,29.016c-0.008,0.045-0.014,0.115-0.014,0.164c0,0.506,0.197,0.95,0.489,1.295   c0.147-0.413,0.263-0.854,0.344-1.295C269.947,29.075,269.656,29.023,269.387,29.016"/>
	<path fill="#F9A51A" d="M270.206,29.178c0-0.168,0.034-0.338,0.058-0.508h-0.001c-0.108,0-0.213,0-0.294-0.016   c-0.014-0.004-0.047-0.008-0.075-0.012c-0.081-0.01-0.156-0.021-0.24-0.051c-0.038,0-0.072,0-0.072-0.004   c-0.041-0.013-0.081-0.021-0.088-0.033c-0.068,0.156-0.082,0.306-0.106,0.461C269.656,29.023,269.948,29.074,270.206,29.178"/>
	<path fill="#FFF100" d="M271.3,33.201c-0.469,0.574-1.175,0.938-1.956,0.951c-0.075,0.201-0.145,0.418-0.145,0.652   c0,0.916,0.768,1.659,1.672,1.659c0.905,0,1.672-0.743,1.672-1.659C272.543,34.031,272,33.398,271.3,33.201"/>
	<path fill="#F9A51A" d="M271.3,33.201c-0.15-0.037-0.285-0.058-0.429-0.058c-0.676,0-1.29,0.411-1.527,1.009   C270.125,34.139,270.831,33.775,271.3,33.201"/>
	<path fill="#FFF100" d="M273.117,18.611c-0.411,0-0.805,0.082-1.158,0.217c-0.034,0.235-0.105,0.467-0.19,0.688   c0.835,0.632,1.349,1.605,1.349,2.701c0,0.413-0.081,0.82-0.214,1.181c0.063,0.089,0.117,0.185,0.19,0.272c0,0,0,0.002,0,0.009   c0.076,0.097,0.113,0.188,0.156,0.285v0.012c0.071,0.087,0.096,0.203,0.156,0.299c0.018,0.1,0.072,0.217,0.081,0.331   c1.537-0.192,2.724-1.445,2.724-2.989C276.211,19.96,274.813,18.611,273.117,18.611"/>
	<path fill="#F9A51A" d="M273.488,24.605c-0.099-0.45-0.313-0.857-0.583-1.208c-0.152,0.41-0.376,0.781-0.667,1.094   c0.28,0.079,0.571,0.129,0.88,0.129C273.25,24.621,273.376,24.607,273.488,24.605"/>
	<path fill="#F9A51A" d="M270.738,15.756c-0.552-0.42-1.237-0.68-2.005-0.68c-0.765,0-1.475,0.275-2.039,0.717   c0.388,0.729,1.147,1.23,2.025,1.23C269.581,17.024,270.363,16.505,270.738,15.756"/>
	<path fill="#FFF100" d="M266.456,14.764c0-0.819,0.453-1.553,1.097-1.945c-0.159-0.778-0.865-1.359-1.689-1.359   c-0.97,0-1.751,0.78-1.751,1.742c0,0.97,0.781,1.751,1.751,1.751c0.199,0,0.415-0.039,0.593-0.11   C266.456,14.813,266.456,14.795,266.456,14.764"/>
	<path fill="#F9A51A" d="M266.456,14.764c0,0.032,0,0.049,0,0.078c0.677-0.235,1.165-0.886,1.165-1.641   c0-0.124-0.024-0.256-0.068-0.383C266.909,13.211,266.456,13.945,266.456,14.764"/>
	<path fill="#F9A51A" d="M271.3,19.201c0.156,0.094,0.318,0.197,0.469,0.315c0.085-0.221,0.156-0.453,0.191-0.688   C271.722,18.932,271.508,19.061,271.3,19.201"/>
	<path fill="#F9A51A" d="M271.613,19.848c-0.011,0.072-0.068,0.138-0.084,0.191c-0.021,0.034-0.042,0.045-0.063,0.078   c-0.09,0.156-0.23,0.313-0.354,0.469c-0.012,0-0.023,0-0.035,0.013c-0.058,0.065-0.119,0.141-0.187,0.194   c-0.01,0.009-0.021,0.018-0.03,0.027c-0.241,0.194-0.496,0.367-0.809,0.505c0,0.088,0,0.198,0,0.291   c0,1.351,0.931,2.505,2.188,2.876c0.544-0.604,0.88-1.406,0.88-2.274c0-1.096-0.514-2.069-1.349-2.702   c-0.012,0.092-0.076,0.172-0.099,0.263C271.651,19.804,271.63,19.832,271.613,19.848"/>
	<path fill="#F26F21" d="M270.357,22.153c-0.085,0-0.166,0.01-0.249,0.02c0.036,0.265,0.129,0.521,0.255,0.756   c0,0.011,0,0.03,0,0.038c0.039,0.042,0.075,0.094,0.077,0.146c0.017,0.01,0.032,0.028,0.048,0.05   c0.031,0.038,0.041,0.078,0.088,0.118c0.019,0.029,0.019,0.039,0.019,0.062c0.041,0.042,0.081,0.083,0.092,0.122   c0.022,0.011,0.047,0.032,0.064,0.049c0.011,0.041,0.061,0.078,0.081,0.119c0,0,0.018,0.011,0.033,0.026   c0.055,0.06,0.123,0.13,0.198,0.188c0.022,0.02,0.064,0.054,0.081,0.066c0.025,0.031,0.07,0.047,0.075,0.069   c0.045,0.028,0.081,0.043,0.102,0.078c0.044,0.011,0.055,0.041,0.089,0.047c0.047,0.031,0.066,0.05,0.122,0.072   c0,0.016,0.046,0.038,0.081,0.044c0.025,0.034,0.075,0.044,0.107,0.071c0.043,0.004,0.049,0.025,0.084,0.041   c0.04,0.017,0.102,0.038,0.13,0.055c0.038,0.015,0.066,0.023,0.066,0.023c0.081,0.038,0.156,0.06,0.237,0.078   c0.291-0.313,0.515-0.683,0.667-1.094C272.313,22.652,271.375,22.153,270.357,22.153"/>
	<path fill="#F9A51A" d="M271.3,19.201c-0.5-0.272-1.094-0.429-1.71-0.429c-1.357,0-2.554,0.765-3.134,1.891   c0.593,0.584,1.406,0.938,2.276,0.938c0.473,0,0.924-0.105,1.317-0.276C270.147,20.451,270.609,19.686,271.3,19.201"/>
	<path fill="#F26F21" d="M271.531,19.339c-0.075-0.044-0.156-0.09-0.231-0.138c-0.691,0.484-1.153,1.25-1.248,2.124   c0.785-0.35,1.404-1.014,1.717-1.809c-0.075-0.065-0.154-0.113-0.237-0.173C271.531,19.341,271.531,19.34,271.531,19.339"/>
	<path fill="#F9A51A" d="M266.531,39.708c-0.513-0.54-1.25-0.882-2.034-0.882c-0.791,0-1.502,0.314-2.028,0.836   c0.577,0.43,1.295,0.689,2.064,0.689C265.281,40.352,265.988,40.117,266.531,39.708"/>
	<path fill="#F26F21" d="M248.336,16.914c-0.207-0.236-0.469-0.449-0.73-0.617c-0.056,0.252-0.079,0.499-0.079,0.768   c0,0.045,0.01,0.11,0.014,0.162C247.819,17.154,248.094,17.05,248.336,16.914"/>
	<path fill="#F9A51A" d="M248.336,16.914c1.008-0.556,1.711-1.628,1.711-2.853c0-0.194-0.032-0.391-0.078-0.57   c-1.189,0.458-2.106,1.513-2.363,2.807C247.867,16.464,248.129,16.677,248.336,16.914"/>
	<path fill="#F9A51A" d="M244.581,22.904c0.206-0.25,0.365-0.53,0.469-0.839c-0.269-0.088-0.529-0.211-0.757-0.354   C244.342,22.128,244.425,22.539,244.581,22.904"/>
	<path fill="#F9A51A" d="M247.559,17.635c-1.212,0.175-2.266,0.919-2.821,1.972c0.302,0.437,0.469,0.978,0.469,1.539   c0,0.323-0.077,0.625-0.156,0.919c0.313,0.083,0.625,0.144,0.943,0.144c1.4,0,2.569-0.889,3.006-2.132   C248.25,19.492,247.706,18.629,247.559,17.635"/>
	<path fill="#FFF100" d="M247.877,18.672l0.017,0.035L247.877,18.672z"/>
	<path fill="#FFF100" d="M248.059,19.006"/>
	<path fill="#FFF100" d="M248.25,19.286c0,0.009,0,0.014,0,0.032C248.25,19.3,248.25,19.295,248.25,19.286"/>
	<path fill="#FFF100" d="M248.471,19.57c0.017,0,0.017,0.021,0.017,0.038C248.488,19.591,248.488,19.57,248.471,19.57"/>
	<path fill="#FFF100" d="M244.738,19.607c0.556-1.053,1.609-1.797,2.821-1.973c-0.009-0.137-0.009-0.267-0.019-0.409   c-0.247,0.061-0.51,0.092-0.771,0.092c-0.938,0-1.77-0.393-2.344-1.02c-0.781,0.446-1.331,1.186-1.512,2.059   C243.671,18.514,244.341,18.976,244.738,19.607"/>
	<path fill="#FFF100" d="M248.719,19.834c0,0.008,0.006,0.009,0.023,0.024C248.725,19.843,248.719,19.842,248.719,19.834"/>
	<path fill="#FFF100" d="M245.125,20.467c0,0.041,0,0.078,0,0.119C245.125,20.545,245.125,20.507,245.125,20.467"/>
	<path fill="#FFF100" d="M245.155,20.69c0.012,0.051,0.021,0.089,0.03,0.132C245.176,20.779,245.166,20.741,245.155,20.69"/>
	<path fill="#FFF100" d="M247.744,18.33c0.007,0.02,0.015,0.028,0.022,0.037C247.759,18.357,247.751,18.349,247.744,18.33"/>
	<path fill="#FFF100" d="M245.05,20.273c0.006,0.037,0.019,0.051,0.029,0.078C245.069,20.324,245.056,20.31,245.05,20.273"/>
	<path fill="#FFF100" d="M245.199,20.912c0.007,0.078,0.007,0.155,0.007,0.235C245.206,21.067,245.206,20.989,245.199,20.912"/>
	<path fill="#FFF100" d="M247.625,17.976c0,0.017,0.006,0.032,0.011,0.032C247.631,18.007,247.625,17.993,247.625,17.976"/>
	<path fill="#F26F21" d="M245.185,20.822c-0.009-0.042-0.02-0.08-0.03-0.132c-0.01-0.034-0.021-0.067-0.029-0.104   c0-0.041,0-0.078,0-0.119c-0.012-0.038-0.027-0.078-0.046-0.116c-0.011-0.028-0.023-0.042-0.029-0.078   c-0.081-0.234-0.163-0.467-0.313-0.666c-0.297,0.54-0.469,1.152-0.469,1.803c0,0.109,0.013,0.193,0.024,0.3   c0.228,0.143,0.488,0.266,0.757,0.354c0.079-0.294,0.156-0.596,0.156-0.919c0-0.08,0-0.157-0.007-0.235   C245.196,20.888,245.19,20.857,245.185,20.822"/>
	<path fill="#F9A51A" d="M245.199,20.912c0.007,0.078,0.007,0.155,0.007,0.235c0-0.104-0.003-0.211-0.021-0.325   C245.19,20.857,245.196,20.89,245.199,20.912"/>
	<path fill="#F9A51A" d="M244.738,19.607c0.149,0.199,0.231,0.431,0.313,0.666c0.006,0.036,0.019,0.05,0.029,0.078   c0.018,0.038,0.034,0.078,0.046,0.116C245.05,20.154,244.896,19.87,244.738,19.607"/>
	<path fill="#F9A51A" d="M245.125,20.585c0.009,0.038,0.019,0.07,0.029,0.104c0.004,0.011,0.007,0.029,0.011,0.052   C245.153,20.685,245.139,20.625,245.125,20.585"/>
	<path fill="#F9A51A" d="M244.822,21.989c-0.015-0.024-0.072-0.038-0.084-0.054C244.749,21.951,244.807,21.965,244.822,21.989"/>
	<path fill="#F9A51A" d="M244.649,21.897c-0.067-0.024-0.107-0.054-0.148-0.072C244.541,21.843,244.581,21.873,244.649,21.897"/>
	<path fill="#FFF100" d="M242.781,8.904c0-0.156-0.011-0.294-0.052-0.428c-0.336,0.156-0.729,0.235-1.154,0.235   c-1.596,0-2.856-1.28-2.856-2.854c0-0.195,0-0.391,0.048-0.584c-0.344,0.018-0.673,0.078-0.974,0.156   c0.382,0.469,0.613,1.059,0.613,1.712c0,1.422-1.094,2.601-2.5,2.741c0.12,0.362,0.171,0.745,0.171,1.15   c0,0.256-0.015,0.501-0.069,0.745c0.719,0.795,1.756,1.29,2.892,1.29c0.682,0,1.307-0.174,1.851-0.457   c-0.113-0.307-0.166-0.619-0.166-0.966C240.584,10.307,241.531,9.179,242.781,8.904"/>
	<path fill="#F26F21" d="M235.066,9.842c0.194,0.041,0.372,0.056,0.564,0.056c0.106,0,0.201-0.008,0.276-0.015   c-0.156-0.547-0.46-1.037-0.823-1.447c-0.033,0.234-0.069,0.48-0.069,0.744C235.014,9.405,235.05,9.622,235.066,9.842"/>
	<path fill="#F9A51A" d="M235.008,9.179c0-0.263,0.042-0.509,0.07-0.744c-0.578-0.628-1.345-1.078-2.216-1.23   c0.046,1.309,0.973,2.378,2.197,2.637C235.046,9.622,235.008,9.407,235.008,9.179"/>
	<path fill="#F9A51A" d="M244.292,21.7c-0.011-0.099-0.023-0.183-0.023-0.289c0-0.651,0.172-1.263,0.469-1.803   c-0.396-0.631-1.066-1.094-1.824-1.25c-0.051,0.223-0.071,0.446-0.071,0.677c0,1.12,0.564,2.101,1.45,2.674V21.7z"/>
	<path fill="#F9A51A" d="M251.063,22.773c0,0.317,0.028,0.633,0.081,0.938c0.487-0.63,0.781-1.433,0.781-2.3   c0-0.196-0.003-0.385-0.048-0.57c-0.139,0.018-0.28,0.03-0.426,0.038C251.208,21.462,251.063,22.107,251.063,22.773"/>
	<path fill="#F26F21" d="M251.752,20.258c-0.14,0.2-0.221,0.406-0.301,0.62c0.146-0.008,0.287-0.021,0.426-0.037   C251.844,20.637,251.802,20.442,251.752,20.258"/>
	<path fill="#FFF100" d="M259.188,18.864c-0.342-0.272-0.711-0.506-1.124-0.687c0.002,0.026,0.008,0.064,0.008,0.098   c0,1.379-1.146,2.504-2.524,2.504c-0.707,0-1.353-0.283-1.802-0.751c-0.514,0.424-1.165,0.714-1.868,0.813   c0.045,0.185,0.048,0.373,0.048,0.57c0,0.867-0.294,1.669-0.781,2.3c0.13,0.602,0.346,1.167,0.648,1.665   c0.521-0.259,1.07-0.401,1.685-0.401c1.023,0,1.961,0.421,2.649,1.115c0.266-1.014,0.773-1.926,1.424-2.699   c0-0.001,0-0.001,0-0.001c-0.089-0.36-0.156-0.735-0.156-1.126C257.394,20.857,258.094,19.607,259.188,18.864"/>
	<path fill="#F9A51A" d="M255.844,27.773c0.033-0.588,0.134-1.149,0.282-1.684c-0.688-0.694-1.626-1.115-2.649-1.115   c-0.614,0-1.164,0.142-1.685,0.401C252.625,26.758,254.123,27.695,255.844,27.773"/>
	<path fill="#F26F21" d="M257.55,23.39c0.325,1.181,1.177,2.155,2.304,2.665c0.75-0.886,1.209-2.032,1.209-3.282   c0-0.551-0.075-1.094-0.234-1.6C259.523,21.601,258.406,22.382,257.55,23.39"/>
	<path fill="#F9A51A" d="M268.191,22.967c-0.567-0.59-1.266-1.094-2.047-1.445c-0.039,0.219-0.081,0.453-0.081,0.695   c0,0.978,0.435,1.847,1.094,2.474C267.313,24.021,267.702,23.411,268.191,22.967"/>
	<path fill="#F26F21" d="M256.126,26.09c-0.148,0.533-0.249,1.096-0.282,1.684c0.069,0,0.144,0,0.219,0   c0.339,0,0.675-0.033,0.996-0.088c-0.187-0.615-0.517-1.162-0.931-1.595"/>
	<path fill="#FFF100" d="M271.374,27.201c0.477,0,0.938,0.185,1.3,0.494c0.576-0.588,0.93-1.387,0.93-2.271   c0-0.29-0.041-0.564-0.116-0.819c-0.111,0.001-0.237,0.015-0.37,0.015c-0.309,0-0.599-0.05-0.88-0.129   c-0.597,0.654-1.416,1.08-2.353,1.146c0.197,0.606,0.321,1.235,0.395,1.901C270.594,27.326,270.961,27.201,271.374,27.201"/>
	<path fill="#F9A51A" d="M272.674,27.695c-0.361-0.31-0.823-0.494-1.3-0.494c-0.412,0-0.78,0.125-1.095,0.338   c0.002,0.156,0.002,0.329,0.002,0.506c0,0.203,0,0.426-0.018,0.625c0.018,0,0.046,0.004,0.093,0.004   C271.253,28.674,272.081,28.307,272.674,27.695"/>
	<path fill="#F9A51A" d="M270.28,27.539c0.002,0.156,0.002,0.328,0.002,0.506C270.281,27.867,270.281,27.695,270.28,27.539"/>
	<path fill="#F9A51A" d="M270.28,27.539c-0.073-0.666-0.197-1.295-0.395-1.901c-0.099,0.011-0.194,0.022-0.295,0.022   c-0.946,0-1.805-0.373-2.434-0.969c-0.047,0.231-0.075,0.476-0.075,0.733c0,1.49,1.013,2.754,2.414,3.13   C269.628,28.13,269.894,27.773,270.28,27.539"/>
	<path fill="#F26F21" d="M268.191,22.967c-0.488,0.444-0.878,1.054-1.034,1.724c0.237,0.229,0.517,0.425,0.798,0.572   c0.009,0.004,0.019,0.008,0.027,0.01c0.099,0.038,0.193,0.078,0.269,0.116c0.021,0.01,0.047,0.018,0.073,0.027   c0.083,0.03,0.164,0.058,0.239,0.092c0.049,0,0.081,0.011,0.108,0.025c0.075,0.012,0.148,0.041,0.227,0.053   c0.059,0.008,0.132,0.018,0.175,0.03c0.047,0.007,0.115,0.009,0.185,0.017c0.093,0.019,0.235,0.028,0.333,0.028   c0.101,0,0.196-0.012,0.295-0.022C269.5,24.625,268.951,23.71,268.191,22.967"/>
	<path fill="#F9A51A" d="M269.89,25.638c0.936-0.067,1.754-0.491,2.348-1.146c-1.094-0.313-1.932-1.212-2.129-2.322   c-0.738,0.056-1.39,0.341-1.915,0.797C268.956,23.71,269.506,24.623,269.89,25.638"/>
	<path fill="#F26F21" d="M270.28,27.539c-0.386,0.234-0.651,0.591-0.784,1.016c0.242,0.078,0.482,0.115,0.769,0.115   c0.018-0.199,0.018-0.422,0.018-0.625C270.281,27.868,270.281,27.695,270.28,27.539"/>
	<path fill="#FFF100" d="M267.081,25.425c0-0.257,0.028-0.502,0.075-0.733c-0.659-0.627-1.094-1.497-1.094-2.474   c0-0.243,0.042-0.474,0.081-0.695c-0.176-0.099-0.394-0.191-0.576-0.263c0.08,0.326,0.107,0.654,0.107,1.004   c0,2.292-1.851,4.141-4.144,4.141c-0.598,0-1.169-0.118-1.678-0.35c-0.72,0.818-1.679,1.406-2.795,1.631   c0.098,0.322,0.142,0.672,0.142,1.025c0,0.834-0.275,1.6-0.744,2.225c0.938,2.109,2.815,3.692,5.148,4.178   c0.596-1.002,1.682-1.665,2.929-1.665c0.829,0,1.61,0.3,2.22,0.81c0.328-0.197,0.641-0.432,0.94-0.666   c-0.609-0.472-0.975-1.205-0.975-2.01c0-1.428,1.144-2.574,2.573-2.574c0.048,0,0.052,0.006,0.095,0.007   c0.021-0.157,0.038-0.307,0.105-0.46C268.094,28.178,267.081,26.914,267.081,25.425"/>
	<path fill="#F9A51A" d="M256.456,30.936c0.469-0.625,0.744-1.391,0.744-2.225c0-0.354-0.044-0.703-0.142-1.025   c-0.078,0.01-0.157,0.022-0.236,0.041l-0.023,0.004c-0.072,0.002-0.144,0.011-0.217,0.021c-0.039,0.006-0.051,0.008-0.07,0.01   c-0.056,0.008-0.137,0.012-0.185,0.012c-0.09,0-0.184,0-0.265,0c-0.075,0-0.148,0-0.216,0h-0.003   c-0.005,0.079-0.008,0.175-0.008,0.271C255.836,29.064,256.063,30.047,256.456,30.936"/>
	<path fill="#F9A51A" d="M258.331,32.094c-0.394,0-0.781,0.055-1.122,0.159c1.041,1.437,2.596,2.474,4.396,2.859   c0.133-0.229,0.309-0.453,0.477-0.642C261.426,33.064,259.981,32.094,258.331,32.094"/>
	<path fill="#F9A51A" d="M261.605,35.113c0.477,0.087,0.945,0.148,1.469,0.148c1.352,0,2.602-0.379,3.68-1.004   c-0.609-0.51-1.391-0.811-2.221-0.811C263.286,33.447,262.2,34.111,261.605,35.113"/>
	<path fill="#F26F21" d="M262.081,34.471L262.081,34.471c-0.081,0.1-0.159,0.195-0.244,0.295c-0.001,0.002-0.003,0.004-0.005,0.006   c-0.086,0.111-0.162,0.227-0.228,0.341c0.239,0.042,0.492,0.083,0.771,0.116C262.313,34.961,262.214,34.712,262.081,34.471"/>
	<path fill="#F9A51A" d="M269.749,30.352c-0.005,0-0.009,0-0.012-0.005c-0.003-0.041-0.046-0.083-0.081-0.128   c0-0.016,0-0.023,0-0.023c-0.023-0.041-0.058-0.078-0.075-0.121c0-0.023,0-0.035-0.003-0.047c-0.027-0.037-0.054-0.075-0.078-0.114   c0-0.03,0-0.038,0-0.069c-0.009-0.035-0.029-0.07-0.047-0.107c-0.011-0.016-0.021-0.051-0.028-0.072c0-0.031,0-0.063,0-0.094   c-0.003-0.041-0.009-0.076-0.016-0.103c-0.008-0.026-0.016-0.054-0.021-0.095c-0.007-0.037-0.009-0.08-0.012-0.131   c0-0.025-0.004-0.033-0.004-0.063c0,0,0.002-0.01,0.004-0.025c0-0.053,0.003-0.094,0.01-0.139   c-0.043-0.002-0.048-0.008-0.095-0.008c-1.43,0-2.573,1.146-2.573,2.574c0,0.805,0.366,1.539,0.975,2.01   c0.956-0.818,1.731-1.889,2.169-3.116C269.813,30.434,269.8,30.389,269.749,30.352"/>
	<path fill="#FFF100" d="M270.263,28.67L270.263,28.67L270.263,28.67z"/>
	<path fill="#FFF100" d="M272.674,27.695c-0.361,0.385-0.83,0.662-1.336,0.822c-0.008,0.002-0.015,0.006-0.023,0.008   c-0.096,0.029-0.171,0.061-0.263,0.072c-0.019,0.002-0.036,0.01-0.056,0.014c-0.09,0.021-0.165,0.027-0.26,0.046   c-0.025,0.003-0.051,0.009-0.062,0.011c-0.098,0.002-0.23,0.006-0.318,0.006c-0.047,0-0.075-0.004-0.093-0.004   c-0.023,0.17-0.058,0.34-0.058,0.508v0.002c0.828,0.311,1.463,1.035,1.634,1.933c0.866-0.214,1.491-0.995,1.491-1.933   C273.331,28.592,273.094,28.063,272.674,27.695"/>
	<path fill="#FFF100" d="M261.074,36.906c0-0.658,0.206-1.283,0.53-1.793c-1.8-0.387-3.354-1.424-4.396-2.859   c-0.387,0.104-0.753,0.274-1.081,0.479c0.091,0.289,0.167,0.6,0.167,0.934c0,1.295-0.933,2.389-2.129,2.668   c0.021,2.274,1.896,4.1,4.165,4.1c0.099,0,0.216-0.004,0.313-0.004c0.397-0.671,1.154-1.131,1.988-1.131   c0.177,0,0.346,0.03,0.506,0.063c0.167-0.182,0.353-0.374,0.51-0.572C261.3,38.242,261.074,37.6,261.074,36.906"/>
	<path fill="#F9A51A" d="M256.295,33.666c0-0.334-0.076-0.645-0.167-0.934c-1.181,0.744-1.968,2.037-1.968,3.531   c0,0.025,0.005,0.055,0.006,0.07C255.363,36.055,256.295,34.961,256.295,33.666"/>
	<path fill="#FFF100" d="M242.781,27.227c-0.469-0.789-1.094-1.484-1.813-2.05c-0.605,1.366-1.975,2.321-3.574,2.321   c-1.875,0-3.438-1.328-3.81-3.084c-0.146,0.073-0.288,0.147-0.427,0.23c0.114,0.392,0.185,0.801,0.185,1.239   c0,1.086-0.426,2.074-1.144,2.787c0.909,0.822,1.506,2.023,1.506,3.357c0,1.621-0.868,3.049-2.173,3.835   c0.113,0.114,0.237,0.229,0.344,0.335c0.519-0.395,1.144-0.631,1.844-0.631c0.748,0,1.417,0.271,1.956,0.723   c0.477-0.486,1.169-0.781,1.894-0.781c0.064,0,0.138,0,0.213,0c-0.065-0.234-0.075-0.478-0.075-0.742   c0-1.836,1.481-3.32,3.298-3.351c-0.098-0.337-0.173-0.712-0.173-1.088C240.831,28.957,241.628,27.775,242.781,27.227"/>
	<path fill="#F9A51A" d="M231.875,36.197c0.844,0.754,1.883,1.319,3.019,1.613c0.007-0.078,0.03-0.156,0.06-0.234   c0.013-0.037,0.016-0.06,0.016-0.082c0-0.049,0.017-0.098,0.039-0.143c0.02-0.035,0.042-0.07,0.042-0.104   c0-0.03,0.018-0.063,0.04-0.1c0.027-0.041,0.035-0.078,0.043-0.119c0.02-0.037,0.04-0.055,0.061-0.078   c0.013-0.041,0.03-0.085,0.071-0.13c0.017-0.026,0.017-0.038,0.017-0.063c0.04-0.041,0.081-0.078,0.092-0.127   c0.015-0.02,0.03-0.029,0.046-0.038c0.019-0.053,0.069-0.104,0.1-0.147c0,0,0.004-0.003,0.013-0.014   c0.063-0.057,0.093-0.105,0.144-0.143c-0.539-0.453-1.207-0.723-1.956-0.723C233.019,35.566,232.394,35.803,231.875,36.197"/>
	<path fill="#F9A51A" d="M233.704,32.027c0-1.334-0.597-2.535-1.506-3.357c-0.667,0.675-1.604,1.116-2.617,1.166   c-0.067,0.334-0.081,0.678-0.081,1.032c0,1.942,0.781,3.705,2.031,4.994C232.836,35.076,233.704,33.648,233.704,32.027"/>
	<path fill="#F26F21" d="M230.281,27.654c-0.356,0.666-0.601,1.406-0.7,2.183c1.013-0.051,1.95-0.492,2.617-1.167   C231.661,28.184,230.988,27.824,230.281,27.654"/>
	<path fill="#F9A51A" d="M236.688,38.014c0.862-0.006,1.719-0.162,2.5-0.458c-0.7-0.474-1.223-1.191-1.406-2.048   c-0.075,0-0.148,0-0.212,0c-0.726,0-1.417,0.295-1.895,0.781C236.193,36.717,236.543,37.332,236.688,38.014"/>
	<path fill="#F26F21" d="M236.688,38.014c-0.145-0.682-0.495-1.297-1.013-1.725c-0.394,0.392-0.697,0.929-0.781,1.521   c0.554,0.132,1.161,0.205,1.75,0.205C236.664,38.016,236.685,38.014,236.688,38.014"/>
	<path fill="#F9A51A" d="M240.968,25.177c-1.215-0.917-2.714-1.456-4.324-1.456c-1.093,0-2.14,0.254-3.06,0.693   c0.372,1.756,1.935,3.084,3.81,3.084C238.993,27.498,240.363,26.543,240.968,25.177"/>
	<path fill="#F9A51A" d="M241.004,31.414c-1.816,0.031-3.298,1.516-3.298,3.353c0,0.267,0.011,0.507,0.075,0.741   c1.019,0.078,1.887,0.735,2.274,1.641c1.437-0.781,2.569-2.031,3.194-3.551C242.198,33.279,241.375,32.461,241.004,31.414"/>
	<path fill="#F26F21" d="M237.781,35.508c0.186,0.859,0.706,1.576,1.406,2.049c0.312-0.117,0.598-0.252,0.868-0.408   C239.667,36.242,238.8,35.586,237.781,35.508"/>
	<path fill="#FFF100" d="M228.563,33.203c0,0.494-0.125,0.945-0.322,1.352c1.146,0.018,2.141,0.678,2.666,1.627   c0.232-0.09,0.43-0.195,0.625-0.32c-1.25-1.287-2.031-3.051-2.031-4.992c0-0.355,0.014-0.699,0.081-1.033   c-0.081,0.006-0.133,0.006-0.185,0.006c-0.99,0-1.847-0.35-2.553-0.938c-0.367,0.547-0.938,0.924-1.638,1.006   c-0.081,0.16-0.156,0.322-0.23,0.484c0.23-0.043,0.462-0.084,0.699-0.084C227.264,30.311,228.563,31.609,228.563,33.203"/>
	<path fill="#F9A51A" d="M230.906,36.182c-0.525-0.949-1.519-1.609-2.666-1.627c-0.056,0.061-0.068,0.131-0.132,0.193   c-0.015,0.016-0.015,0.037-0.015,0.057c-0.046,0.037-0.075,0.079-0.099,0.124c-0.022,0.032-0.046,0.04-0.058,0.069   c-0.021,0.041-0.075,0.078-0.087,0.119c-0.021,0.014-0.042,0.037-0.063,0.039c-0.034,0.065-0.081,0.117-0.16,0.163   c0,0,0,0.001-0.002,0.001c-0.038,0.058-0.082,0.109-0.156,0.146c0,0.012-0.022,0.029-0.045,0.041c-0.03,0.037-0.1,0.07-0.129,0.098   c-0.027,0.018-0.055,0.018-0.058,0.031c-0.061,0.03-0.098,0.064-0.156,0.105c0,0-0.02,0-0.04,0.011   c-0.063,0.036-0.128,0.067-0.197,0.104c0.679,0.432,1.487,0.666,2.344,0.666C229.813,36.523,230.365,36.404,230.906,36.182"/>
	<path fill="#F9A51A" d="M225.675,30.311c-0.237,0-0.469,0.041-0.699,0.083c-0.171,0.505-0.297,1.052-0.297,1.634   c0,1.293,0.556,2.465,1.449,3.283c0.053-0.045,0.11-0.104,0.172-0.156c0.021,0,0.043-0.012,0.064-0.026   c0.049-0.046,0.101-0.088,0.167-0.126c0.004-0.004,0.018-0.004,0.031-0.005c0.07-0.046,0.144-0.088,0.219-0.124   c0.018-0.01,0.036-0.018,0.054-0.025c0.057-0.025,0.115-0.049,0.175-0.084c0.031,0,0.063-0.008,0.071-0.02   c0.075-0.018,0.156-0.057,0.225-0.065c0.007-0.005,0.007-0.011,0.007-0.015c0.081-0.016,0.158-0.043,0.245-0.057   c0.033,0,0.067-0.001,0.067-0.007c0.081-0.017,0.147-0.03,0.207-0.03c0.03,0,0.031,0,0.071,0c0.09-0.012,0.182-0.021,0.271-0.021   c0,0,0.029,0.005,0.065,0.007c0.197-0.409,0.322-0.859,0.322-1.354C228.563,31.608,227.264,30.311,225.675,30.311"/>
	<path fill="#F26F21" d="M226.128,35.311c0.209,0.203,0.449,0.391,0.716,0.547c0.589-0.269,1.094-0.728,1.396-1.301   c-0.036-0.002-0.065-0.007-0.065-0.007C227.394,34.55,226.675,34.842,226.128,35.311"/>
	<path fill="#F9A51A" d="M225.206,29.91c0.7-0.082,1.271-0.459,1.638-1.006c-0.075-0.049-0.144-0.115-0.202-0.18   c-0.025-0.014-0.029-0.025-0.029-0.051c-0.081-0.059-0.156-0.119-0.208-0.197C225.906,28.867,225.519,29.35,225.206,29.91"/>
	<path fill="#F9A51A" d="M232.198,28.67c0.719-0.713,1.144-1.701,1.144-2.787c0-0.438-0.07-0.848-0.185-1.239   c-1.232,0.688-2.251,1.735-2.876,3.011C230.988,27.823,231.661,28.184,232.198,28.67"/>
	<path fill="#F9A51A" d="M260.826,21.178c-0.312-0.917-0.895-1.727-1.639-2.315c-1.094,0.744-1.794,1.994-1.794,3.4   c0,0.391,0.068,0.771,0.156,1.134C258.406,22.382,259.521,21.601,260.826,21.178"/>
	<path fill="#F9A51A" d="M248.094,17.59c0.268,0,0.53,0.026,0.779,0.074c-0.154-0.28-0.311-0.526-0.537-0.75   c-0.242,0.135-0.518,0.241-0.796,0.313c0.01,0.142,0.01,0.272,0.019,0.408C247.746,17.617,247.938,17.59,248.094,17.59"/>
</g>
</svg>